<svg xmlns="http://www.w3.org/2000/svg" width="200" height="180" viewBox="0 0 470 427" version="1.1"><path d="M 160.218 351.500 L 160.437 372.500 161 352 C 161.576 331.017, 161.840 330.833, 162.436 351 C 162.623 357.325, 163.028 364.975, 163.336 368 C 163.750 372.064, 163.683 372.586, 163.080 370 C 162.561 367.774, 162.215 374.076, 162.132 387.309 C 162.046 400.895, 161.653 407.903, 161 407.500 C 160.450 407.160, 160 407.359, 160 407.941 C 160 408.523, 160.450 409, 161 409 C 161.550 409, 162 409.934, 162 411.075 L 162 413.151 190.817 412.903 C 206.667 412.767, 220.236 413.028, 220.972 413.482 C 221.866 414.035, 222.072 413.926, 221.595 413.155 C 221.148 412.430, 221.622 412, 222.870 412 C 223.963 412, 225.538 411.319, 226.371 410.486 L 227.885 408.972 229.018 410.736 L 230.151 412.500 229.607 410.750 C 229.308 409.788, 229.525 409, 230.090 409 C 230.656 409, 230.797 408.480, 230.405 407.845 C 229.959 407.124, 230.131 406.963, 230.862 407.415 C 231.506 407.813, 231.793 408.526, 231.500 409 C 231.207 409.474, 231.494 410.187, 232.138 410.585 C 232.869 411.037, 233.041 410.876, 232.595 410.155 C 232.203 409.520, 232.385 409, 233 409 C 233.615 409, 233.879 408.613, 233.587 408.141 C 233.295 407.668, 234.208 407.408, 235.616 407.562 C 237.024 407.717, 237.923 407.590, 237.614 407.281 C 237.305 406.971, 238.503 405.439, 240.276 403.875 C 242.049 402.311, 242.938 401.025, 242.250 401.016 C 241.563 401.007, 241 401.498, 241 402.107 C 241 402.716, 240.325 402.955, 239.500 402.638 C 238.586 402.288, 238 402.637, 238 403.531 C 238 404.339, 237.646 405, 237.214 405 C 236.782 405, 236.429 404.132, 236.429 403.071 C 236.429 402.011, 236.895 401.223, 237.464 401.321 C 238.034 401.420, 238.376 400.904, 238.225 400.176 C 238.055 399.358, 238.418 399.141, 239.175 399.608 C 239.848 400.024, 241.364 400.407, 242.542 400.458 L 244.686 400.552 244.455 397.026 C 244.328 395.087, 244.428 394.037, 244.677 394.694 C 244.926 395.350, 245.749 395.650, 246.508 395.359 C 247.552 394.958, 247.650 394.209, 246.911 392.266 C 246.109 390.155, 246.176 389.901, 247.291 390.827 C 248.394 391.742, 248.561 391.371, 248.189 388.834 C 247.842 386.470, 248.043 385.909, 249.020 386.512 C 249.909 387.062, 250.065 386.914, 249.523 386.038 C 249.091 385.338, 248.755 379.409, 248.776 372.861 C 248.798 366.313, 248.445 359.728, 247.994 358.228 C 247.542 356.728, 247.133 356.048, 247.086 356.719 C 247.039 357.389, 246.325 357.678, 245.500 357.362 C 243.767 356.697, 243.444 354.876, 245.125 355.250 C 245.744 355.388, 246.456 354.938, 246.708 354.250 C 246.968 353.541, 246.374 352.993, 245.333 352.985 C 243.871 352.972, 243.785 352.789, 244.909 352.077 C 245.684 351.587, 247.034 351.411, 247.909 351.687 C 249.253 352.111, 249.274 352.029, 248.048 351.160 C 247.249 350.595, 246.276 350.329, 245.885 350.571 C 245.495 350.812, 245.299 349.883, 245.450 348.505 C 245.601 347.127, 245.389 346, 244.979 346 C 244.569 346, 243.986 345.055, 243.684 343.899 C 243.330 342.547, 242.694 342.071, 241.897 342.563 C 241.046 343.090, 240.850 342.832, 241.271 341.737 C 241.606 340.862, 241.233 339.608, 240.441 338.951 C 239.315 338.016, 239 338.034, 239 339.031 C 239 339.790, 238.292 339.498, 237.250 338.310 C 236.287 337.211, 234.875 336.526, 234.111 336.786 C 233.266 337.074, 232.995 336.817, 233.420 336.130 C 233.804 335.508, 233.615 335, 233 335 C 232.372 335, 232.211 334.452, 232.633 333.750 C 233.180 332.839, 232.943 332.857, 231.756 333.819 C 230.514 334.826, 229.632 334.874, 228.036 334.019 C 226.885 333.403, 226.150 332.566, 226.402 332.159 C 226.654 331.751, 225.204 331.578, 223.180 331.774 C 220.392 332.043, 219.864 331.875, 221 331.080 C 221.825 330.503, 222.027 330.024, 221.450 330.015 C 220.872 330.007, 219.972 330.337, 219.450 330.750 C 218.927 331.163, 205.337 331.275, 189.249 331 L 159.998 330.500 160.218 351.500 M 312 330.758 C 294.747 330.948, 286.023 331.382, 287 332.002 C 287.999 332.635, 286.163 332.811, 281.500 332.529 C 277.650 332.296, 275.519 332.338, 276.765 332.624 C 278.010 332.909, 278.759 333.581, 278.429 334.115 C 278.098 334.650, 278.429 335.829, 279.164 336.736 C 280.117 337.911, 280.141 338.168, 279.250 337.633 C 278.393 337.118, 278.005 337.608, 278.015 339.191 C 278.028 341.049, 278.220 341.207, 279 340 L 279.969 338.500 279.985 340.200 C 279.993 341.135, 279.313 342.285, 278.474 342.755 L 276.948 343.609 277.224 377.805 C 277.376 396.613, 277.169 412.001, 276.764 412 C 276.359 412, 275.902 397.262, 275.750 379.250 L 275.472 346.500 275.234 380 L 274.996 413.500 284.748 413.045 L 294.500 412.589 288.500 411.963 L 282.500 411.336 288.403 411.168 L 294.306 411 292.024 409.021 C 290.769 407.932, 289.280 407.327, 288.716 407.675 C 288.142 408.031, 287.993 407.821, 288.378 407.198 C 288.755 406.587, 289.697 406.330, 290.470 406.627 C 291.492 407.019, 291.990 406.117, 292.291 403.333 L 292.706 399.500 292.603 403.655 C 292.546 405.940, 292.885 407.571, 293.355 407.281 C 294.301 406.696, 293.564 389.525, 292.473 386.750 C 292.057 385.691, 292.246 385, 292.952 385 C 293.593 385, 293.869 385.403, 293.565 385.895 C 293.260 386.388, 293.614 387.022, 294.350 387.304 C 295.301 387.669, 295.599 387.048, 295.380 385.159 C 295.210 383.696, 295.314 383.288, 295.609 384.250 L 296.147 386 314.073 386 C 325.358 386, 332 385.629, 332 385 C 332 384.450, 332.477 384, 333.059 384 C 333.641 384, 333.821 384.480, 333.459 385.066 C 333.025 385.769, 334.112 386.025, 336.650 385.816 C 338.767 385.642, 340.412 385.011, 340.305 384.414 C 340.191 383.784, 341.450 383.418, 343.305 383.543 C 345.062 383.662, 348.075 383.069, 350 382.225 C 351.925 381.381, 353.838 380.761, 354.250 380.846 C 354.663 380.931, 354.929 380.663, 354.841 380.250 C 354.504 378.655, 356.262 376.044, 357.259 376.660 C 357.875 377.041, 358.012 376.828, 357.590 376.146 C 356.536 374.440, 357.921 370.843, 359.322 371.647 C 359.970 372.018, 359.540 371.237, 358.366 369.911 C 356.765 368.102, 356.458 367, 357.137 365.500 L 358.041 363.500 357.614 365.749 C 357.380 366.986, 357.582 368.242, 358.065 368.540 C 359.596 369.486, 360.270 364.105, 359.165 359.752 C 358.579 357.444, 358.460 355.319, 358.901 355.028 C 359.988 354.311, 360.934 348.923, 359.856 349.589 C 359.385 349.880, 359 349.266, 359 348.226 C 359 347.185, 358.687 346.020, 358.304 345.638 C 357.628 344.962, 356.995 342.748, 356.775 340.294 C 356.715 339.631, 356.357 339.279, 355.979 339.513 C 354.873 340.196, 350.906 335.443, 351.741 334.436 C 352.158 333.933, 351.375 334.405, 350 335.484 C 348.625 336.564, 348.063 336.806, 348.750 336.023 C 350.508 334.022, 350.323 333.525, 347.750 333.327 C 345.948 333.189, 341.609 332.620, 338 332.049 C 337.725 332.005, 338.175 331.533, 339 331 C 339.825 330.467, 340.050 330.128, 339.500 330.248 C 338.950 330.368, 326.575 330.597, 312 330.758 M 177.750 332.740 C 181.188 332.936, 186.813 332.936, 190.250 332.740 C 193.688 332.545, 190.875 332.385, 184 332.385 C 177.125 332.385, 174.313 332.545, 177.750 332.740 M 280.869 334.342 C 281.481 335.080, 281.795 335.872, 281.565 336.102 C 281.335 336.332, 283.410 336.487, 286.176 336.446 C 288.942 336.405, 291.378 336.851, 291.590 337.436 C 291.801 338.021, 292.092 340.750, 292.237 343.500 C 292.382 346.250, 292.950 348.831, 293.500 349.235 C 294.072 349.655, 293.786 349.976, 292.833 349.985 C 291.917 349.993, 290.995 349.485, 290.785 348.856 C 290.576 348.227, 289.188 347.583, 287.702 347.425 L 285 347.136 285.136 350.818 C 285.227 353.262, 285.421 353.723, 285.714 352.189 C 286.162 349.840, 288.541 348.208, 289.752 349.418 C 290.118 349.785, 290.713 352.203, 291.075 354.792 L 291.733 359.500 291.866 355.250 C 291.942 352.847, 292.489 351, 293.125 351 C 293.907 351, 294.114 353.616, 293.802 359.550 C 293.555 364.253, 293.724 368.329, 294.176 368.609 C 295.544 369.454, 336.380 369.704, 338.083 368.877 C 339.152 368.358, 339.667 368.578, 339.667 369.554 C 339.667 370.414, 338.693 371, 337.262 371 C 334.934 371, 331.271 373.605, 332.238 374.572 C 332.501 374.834, 333.284 374.362, 333.980 373.524 C 334.676 372.686, 336.427 372.020, 337.872 372.045 L 340.500 372.090 337.500 373.412 L 334.500 374.733 338 374.481 L 341.500 374.230 341.242 370.477 C 341.101 368.412, 341.395 366.223, 341.897 365.612 C 343.610 363.524, 343.613 354.503, 341.900 355.562 C 341.183 356.005, 341.224 355.451, 342.017 353.969 L 343.233 351.697 341.564 352.337 C 340.647 352.689, 340.152 352.563, 340.464 352.058 C 340.777 351.552, 340.568 350.851, 340 350.500 C 339.432 350.149, 339.226 349.443, 339.543 348.931 C 340.247 347.791, 340.731 347.811, 317.675 347.994 L 298.850 348.144 298.309 346.072 C 298.011 344.932, 297.118 344, 296.324 344 C 295.531 344, 295.157 343.555, 295.493 343.011 C 295.849 342.435, 295.426 342.283, 294.478 342.647 C 293.142 343.159, 292.911 342.669, 293.177 339.885 C 293.435 337.179, 293.935 336.500, 295.667 336.500 C 296.858 336.500, 298.108 336.226, 298.443 335.891 C 299.326 335.008, 288.912 333.940, 286.250 334.641 C 284.906 334.995, 284 334.783, 284 334.117 C 284 333.502, 283.045 333, 281.878 333 C 280.215 333, 279.997 333.291, 280.869 334.342 M 351.120 338.644 L 352.484 340.288 350.325 339.603 C 348.723 339.095, 348.222 339.309, 348.387 340.430 C 348.509 341.262, 348.994 342.293, 349.465 342.721 C 349.935 343.149, 350.029 342.989, 349.672 342.364 C 349.298 341.709, 349.953 340.984, 351.218 340.653 C 353.955 339.937, 354.927 340.766, 352.971 342.149 C 351.725 343.030, 351.749 343.110, 353.128 342.672 C 354.024 342.389, 355.352 342.684, 356.080 343.328 C 357.875 344.917, 355.164 341.108, 352.822 338.750 C 350.621 336.534, 349.301 336.452, 351.120 338.644 M 235.554 339.913 C 235.184 340.511, 235.246 341.007, 235.691 341.015 C 236.136 341.024, 235.825 341.467, 235 342 C 234 342.646, 233.917 342.974, 234.750 342.985 C 235.542 342.994, 236 344.487, 236 347.059 C 236 349.788, 236.365 350.892, 237.114 350.429 C 237.794 350.009, 238.016 348.154, 237.683 345.672 C 237.383 343.435, 237.500 342.191, 237.944 342.909 C 238.510 343.826, 238.953 343.885, 239.434 343.107 C 239.810 342.498, 239.754 341.993, 239.309 341.985 C 238.864 341.976, 239.175 341.484, 240 340.890 L 241.500 339.811 239.872 340.328 C 238.976 340.611, 237.790 340.390, 237.235 339.835 C 236.556 339.156, 236.006 339.182, 235.554 339.913 M 227.735 343.770 C 227.538 344.172, 227.455 345.512, 227.552 346.750 C 227.744 349.220, 227.257 349.459, 225 348 L 223.500 347.031 225.250 347.015 C 226.213 347.007, 227 346.550, 227 346 C 227 344.466, 224.286 344.813, 223.666 346.427 C 222.969 348.245, 225.169 350.102, 227.617 349.762 C 228.653 349.618, 229.613 349.950, 229.750 350.500 C 229.887 351.050, 229.475 351.500, 228.833 351.500 C 228.192 351.500, 227.482 352.175, 227.257 353 L 226.848 354.500 227.909 353 C 228.561 352.077, 228.975 351.958, 228.985 352.691 C 229.010 354.637, 227.318 355.088, 225.991 353.489 C 225.311 352.670, 225.148 351.997, 225.628 351.993 C 226.107 351.990, 225.150 351.093, 223.500 350 L 220.500 348.013 201.450 348.007 C 190.814 348.003, 181.980 347.582, 181.450 347.054 C 180.850 346.456, 180.500 355.480, 180.500 371.542 L 180.500 396.977 182.500 396.498 C 183.600 396.234, 183.938 396.277, 183.250 396.593 C 181.238 397.517, 181.815 399.193, 183.916 398.527 C 184.970 398.192, 186.121 398.387, 186.475 398.959 C 186.829 399.532, 186.416 400, 185.559 400 C 184.702 400, 184 400.708, 184 401.573 C 184 404.453, 187.491 402.704, 187.600 399.771 C 187.656 398.284, 187.318 397.303, 186.850 397.592 C 186.383 397.882, 186 397.641, 186 397.059 C 186 396.362, 190.982 396, 200.571 396 C 212.190 396, 215.447 396.304, 216.643 397.500 C 217.468 398.325, 218.673 398.993, 219.321 398.985 C 220.023 398.976, 219.905 398.593, 219.029 398.039 C 216.798 396.628, 218.539 395.564, 224 394.998 C 225.043 394.889, 225.119 394.688, 224.250 394.338 C 223.563 394.060, 223 393.369, 223 392.802 C 223 392.234, 224.064 392.467, 225.364 393.319 L 227.729 394.868 227.614 392.684 C 227.528 391.041, 227.995 390.572, 229.500 390.792 C 230.661 390.961, 231.055 390.751, 230.439 390.292 C 228.862 389.116, 229.190 385.276, 230.857 385.397 C 231.642 385.454, 232.504 384.875, 232.772 384.111 C 233.074 383.249, 232.821 382.992, 232.106 383.434 C 231.276 383.947, 231.095 382.935, 231.461 379.824 C 231.846 376.541, 231.755 376.102, 231.084 378 C 230.443 379.810, 230.217 378.293, 230.263 372.500 L 230.326 364.500 231 370 L 231.674 375.500 231.995 371 C 232.171 368.525, 232.252 365.825, 232.174 365 C 231.704 360, 231.206 357.953, 230.152 356.683 C 228.849 355.113, 229.660 351.672, 231.121 352.575 C 231.622 352.885, 231.774 353.556, 231.458 354.067 C 230.790 355.149, 233.049 358.703, 234.461 358.792 C 234.989 358.825, 235.745 359.673, 236.141 360.676 L 236.859 362.500 236.930 360.809 C 236.968 359.879, 236.543 358.835, 235.984 358.490 C 235.425 358.144, 235.223 357.448, 235.536 356.942 C 235.848 356.437, 235.350 356.312, 234.427 356.666 L 232.751 357.309 234.379 354.825 C 235.933 352.454, 235.703 351, 233.774 351 C 233.284 351, 233.158 351.446, 233.495 351.992 C 233.832 352.538, 233.723 353.672, 233.253 354.513 C 232.644 355.601, 232.369 355.028, 232.298 352.521 C 232.243 350.584, 232.607 349, 233.107 349 C 234.382 349, 232.076 345.529, 229.898 344.169 C 228.905 343.548, 227.932 343.369, 227.735 343.770 M 280.447 375 C 280.447 392.875, 280.582 400.188, 280.748 391.250 C 280.914 382.313, 280.914 367.688, 280.748 358.750 C 280.582 349.813, 280.447 357.125, 280.447 375 M 199.750 345.732 C 202.088 345.943, 205.912 345.943, 208.250 345.732 C 210.588 345.522, 208.675 345.349, 204 345.349 C 199.325 345.349, 197.412 345.522, 199.750 345.732 M 177.539 354.646 C 177.127 356.838, 177.269 358.548, 177.894 358.934 C 178.488 359.302, 179.069 364.696, 179.251 371.538 L 179.570 383.500 179.785 367.250 C 179.989 351.849, 179.051 346.586, 177.539 354.646 M 283.349 359 C 283.349 363.675, 283.522 365.587, 283.732 363.250 C 283.943 360.913, 283.943 357.087, 283.732 354.750 C 283.522 352.413, 283.349 354.325, 283.349 359 M 115.338 381 L 115.500 408.500 120 409.160 L 124.500 409.819 119.875 409.660 C 116.274 409.535, 115.299 409.832, 115.472 411 C 115.648 412.194, 117.548 412.531, 124.778 412.653 C 132.204 412.777, 133.764 412.549, 133.324 411.403 C 133.028 410.631, 131.372 409.947, 129.643 409.882 L 126.500 409.763 129.500 409.122 L 132.500 408.480 132.231 381.990 C 132.083 367.421, 131.970 354.943, 131.981 354.261 C 131.992 353.547, 130.941 353.110, 129.500 353.229 C 128.125 353.343, 127 353.736, 127 354.101 C 127 354.467, 126.099 355.002, 124.999 355.290 C 123.898 355.578, 123.221 355.451, 123.496 355.007 C 123.770 354.564, 122.010 354.043, 119.585 353.850 L 115.176 353.500 115.338 381 M 124.750 357.662 C 125.602 358.006, 126 360.686, 126 366.083 C 126 370.694, 126.418 374, 127 374 C 128.084 374, 128.361 362.949, 127.370 359.250 C 127.038 358.012, 126.032 357.036, 125.133 357.079 C 124.097 357.129, 123.957 357.342, 124.750 357.662 M 117.422 379 C 117.422 390.275, 117.568 394.887, 117.746 389.250 C 117.924 383.613, 117.924 374.387, 117.746 368.750 C 117.568 363.113, 117.422 367.725, 117.422 379 M 121.790 378.999 C 121.967 391.211, 122.462 399, 123.061 399 C 124.401 399, 123.846 359.781, 122.500 359.331 C 121.849 359.114, 121.601 365.982, 121.790 378.999 M 288 366.713 C 288 368.314, 288.585 369, 289.950 369 C 291.023 369, 292.271 369.662, 292.724 370.472 C 293.177 371.281, 294.437 372.082, 295.524 372.251 C 296.611 372.420, 297.950 372.826, 298.500 373.154 C 299.050 373.482, 300.400 373.347, 301.500 372.854 L 303.500 371.959 301.250 372.386 C 299.842 372.653, 299 372.321, 299 371.500 C 299 370.678, 298.250 370.383, 296.995 370.712 C 294.381 371.395, 292 369.359, 292 366.440 C 292 364.741, 291.468 364.164, 290 364.275 C 288.627 364.378, 288 365.142, 288 366.713 M 316.500 370.943 L 324.500 371.583 316.500 372.153 C 310.914 372.551, 311.947 372.623, 319.923 372.389 C 326.205 372.205, 331.690 371.705, 332.111 371.277 C 332.533 370.850, 327.393 370.456, 320.689 370.401 L 308.500 370.302 316.500 370.943 M 125.349 383 C 125.349 387.675, 125.522 389.587, 125.732 387.250 C 125.943 384.913, 125.943 381.087, 125.732 378.750 C 125.522 376.413, 125.349 378.325, 125.349 383 M 160.349 383 C 160.349 387.675, 160.522 389.587, 160.732 387.250 C 160.943 384.913, 160.943 381.087, 160.732 378.750 C 160.522 376.413, 160.349 378.325, 160.349 383 M 348.804 377.365 C 348.003 378.863, 348.018 379.506, 348.863 379.788 C 349.495 379.998, 349.761 380.577, 349.454 381.074 C 349.147 381.571, 349.644 381.690, 350.558 381.340 L 352.219 380.702 350.651 379.825 C 348.697 378.731, 349.613 375.914, 351.667 376.702 C 352.888 377.171, 352.919 377.436, 351.834 378.124 C 351.030 378.634, 350.948 378.975, 351.628 378.985 C 352.663 378.999, 355.722 376.107, 354.872 375.917 C 351.572 375.178, 349.741 375.615, 348.804 377.365 M 291.736 380.250 C 288.545 382.673, 286.708 391, 289.364 391 C 290.294 391, 290.692 389.806, 290.614 387.250 C 290.534 384.624, 290.897 383.582, 291.824 383.775 C 292.553 383.926, 292.862 383.585, 292.511 383.018 C 292.160 382.450, 292.577 381.716, 293.437 381.386 C 295.056 380.764, 295.614 379, 294.191 379 C 293.746 379, 292.642 379.563, 291.736 380.250 M 283.385 395 C 283.385 401.875, 283.545 404.688, 283.740 401.250 C 283.936 397.813, 283.936 392.188, 283.740 388.750 C 283.545 385.313, 283.385 388.125, 283.385 395 M 220.375 398.887 C 220.804 402.568, 221.434 403.468, 222.933 402.541 C 224.579 401.524, 224.203 399.494, 222.002 397.502 L 220.003 395.693 220.375 398.887 M 218.292 407.786 C 219.277 408.209, 210.952 408.381, 199.792 408.169 C 188.631 407.956, 179.725 408.010, 180 408.289 C 181.007 409.310, 219.496 409.514, 219.803 408.500 C 219.969 407.950, 219.294 407.391, 218.303 407.258 L 216.500 407.017 218.292 407.786 M 172.500 410.680 C 186.782 411.380, 213.720 411.437, 212.659 410.765 C 212.022 410.361, 201.375 410.110, 189 410.208 C 176.625 410.306, 169.200 410.518, 172.500 410.680" stroke="none" fill="#11253b" fill-rule="evenodd"/><path d="M 218 14.526 C 217.175 14.688, 213.125 15.349, 209 15.995 C 170.745 21.990, 135.413 47.753, 117.162 82.962 C 114.443 88.208, 111.899 93.625, 111.509 95 C 111.119 96.375, 113.379 92.447, 116.531 86.272 C 119.683 80.096, 122.648 75.282, 123.119 75.574 C 123.591 75.865, 123.711 75.409, 123.385 74.560 C 123.036 73.651, 123.451 72.764, 124.396 72.401 C 125.278 72.063, 126 71.133, 126 70.334 C 126 69.491, 126.484 69.181, 127.155 69.595 C 127.843 70.021, 128.039 69.871, 127.639 69.225 C 127.271 68.629, 129.159 65.522, 131.837 62.320 C 137.189 55.920, 152.913 40.967, 154.500 40.768 C 155.050 40.699, 156.096 40.047, 156.825 39.318 C 161.778 34.365, 178.290 25.667, 190.500 21.579 C 198.571 18.877, 218.712 15.015, 224.785 15.005 C 231.604 14.994, 235.621 21.236, 231.468 25.389 C 229.884 26.973, 229.445 27.066, 214.609 28.962 C 191.719 31.887, 167.686 43.678, 151.073 60.134 C 139.870 71.232, 127.236 90.245, 124.583 100 C 124.210 101.375, 125.715 98.751, 127.929 94.169 C 144.833 59.183, 178.095 34.682, 215 30.032 C 230.357 28.098, 230.866 27.992, 232.468 26.389 C 234.668 24.189, 234.408 18.408, 232 16 C 230.468 14.468, 228.771 14.027, 224.750 14.116 C 221.863 14.180, 218.825 14.364, 218 14.526 M 249.488 19.013 C 247.189 21.554, 247.142 26.395, 249.394 28.883 C 250.345 29.933, 253.198 31.102, 255.741 31.484 C 268.383 33.380, 287.789 42.173, 298.474 50.846 C 301.627 53.406, 305.173 56.250, 306.354 57.168 C 309.165 59.352, 313 60.448, 313 59.067 C 313 58.480, 312.042 58, 310.871 58 C 308.529 58, 300.774 51.560, 301.836 50.497 C 302.201 50.132, 301.825 49.983, 301 50.167 C 300.170 50.351, 299.623 49.909, 299.775 49.176 C 299.926 48.447, 299.633 48.109, 299.123 48.424 C 298.613 48.739, 295.854 47.421, 292.992 45.495 C 284.722 39.929, 271.619 34.037, 262.194 31.644 C 252.911 29.288, 249 26.854, 249 23.433 C 249 20.514, 252.063 18, 255.619 18 C 259.341 18, 268.818 20.395, 276 23.151 C 283.765 26.131, 298.123 33.211, 297.554 33.779 C 297.292 34.041, 298.538 35, 300.322 35.909 C 302.106 36.819, 306.814 40.187, 310.783 43.394 L 318 49.225 318 52.556 C 318 54.864, 317.318 56.364, 315.777 57.443 C 314.555 58.299, 314.073 59, 314.706 59 C 317.039 59, 319 55.783, 319 51.955 L 319 48.053 309.250 40.469 C 288.367 24.226, 255.462 12.412, 249.488 19.013 M 222 45.680 C 188.893 49.085, 158.948 69.359, 144.391 98.225 C 139.550 107.826, 140.245 108.042, 145.279 98.500 C 150.143 89.282, 152.731 85.395, 153.769 85.750 C 154.171 85.888, 154.500 85.569, 154.500 85.042 C 154.500 83.366, 161.149 75.974, 162.119 76.573 C 162.631 76.890, 162.926 76.553, 162.775 75.824 C 162.623 75.091, 163.170 74.649, 164 74.833 C 164.825 75.017, 165.162 74.828, 164.748 74.414 C 163.562 73.229, 167.004 70.076, 168.844 70.662 C 170.144 71.076, 170.206 70.979, 169.131 70.212 C 168.090 69.469, 169.922 67.802, 176.782 63.252 C 187.400 56.209, 197.530 51.789, 209.693 48.891 L 218.500 46.793 235 47.246 L 251.500 47.698 260 50.467 C 269.707 53.630, 281.120 59.120, 284.025 62.025 C 285.111 63.111, 286 63.742, 286 63.427 C 286 62.321, 291.501 67.195, 291.545 68.341 C 291.570 68.978, 292.104 69.397, 292.732 69.271 C 293.933 69.030, 308 83.748, 308 85.246 C 308 85.726, 307.480 85.797, 306.845 85.405 C 306.108 84.949, 305.963 85.132, 306.446 85.912 C 306.861 86.584, 307.452 86.881, 307.760 86.573 C 308.545 85.789, 311.231 89.818, 310.602 90.835 C 310.319 91.292, 310.716 91.667, 311.483 91.667 C 315.566 91.667, 302.154 74.664, 291.085 65.808 C 272.057 50.583, 246.558 43.154, 222 45.680 M 326.017 67.286 C 321.098 69.775, 321.259 72.683, 326.854 82.441 C 331.623 90.758, 334.394 97.683, 336.984 107.750 L 338.077 112 340.789 111.900 L 343.500 111.801 341.014 111.109 C 339.036 110.558, 338.291 109.403, 337.370 105.458 C 335.878 99.074, 333.862 93.634, 330.607 87.212 C 327.734 81.541, 327.259 79.437, 329.532 82.441 C 330.339 83.509, 331 83.901, 331 83.314 C 331 81.882, 328.479 79.854, 327.686 80.647 C 326.895 81.439, 324.609 76.022, 324.881 74 L 325.083 72.500 324.057 74 C 323.218 75.227, 323.028 75.079, 323.015 73.191 C 323.005 71.624, 323.402 71.113, 324.250 71.601 C 324.938 71.997, 325.184 71.970, 324.798 71.541 C 323.643 70.260, 326.700 67.947, 328.590 68.673 C 329.773 69.127, 330.097 68.967, 329.605 68.170 C 329.207 67.526, 329.359 67, 329.941 67 C 330.523 67, 331 67.675, 331 68.500 C 331 69.325, 331.477 70, 332.059 70 C 332.641 70, 332.789 69.438, 332.387 68.750 C 331.985 68.063, 332.649 68.372, 333.863 69.437 C 335.077 70.502, 335.846 71.959, 335.571 72.675 C 335.297 73.391, 335.393 73.928, 335.786 73.870 C 337.740 73.578, 338.338 74.135, 337 75 C 335.728 75.822, 335.775 75.972, 337.309 75.985 C 338.420 75.994, 338.843 76.446, 338.405 77.155 C 337.999 77.810, 338.127 78.040, 338.699 77.686 C 339.952 76.912, 342.272 81.750, 341.358 83.229 C 340.991 83.823, 341.136 84.034, 341.681 83.697 C 343.025 82.866, 346.092 89.526, 345.381 91.732 C 344.940 93.101, 345.034 93.188, 345.797 92.117 C 346.554 91.054, 346.942 91.460, 347.471 93.867 L 348.159 97 358.829 96.789 L 369.500 96.578 359.376 96.256 L 349.252 95.933 347.141 90.416 C 344.555 83.659, 337.475 71.384, 334.376 68.285 C 331.802 65.711, 329.640 65.453, 326.017 67.286 M 232.647 100.947 C 252.704 101.406, 257.109 101.769, 258.647 103.088 C 259.666 103.961, 268.375 111.213, 278 119.204 C 287.625 127.195, 296.283 134.611, 297.241 135.685 L 298.982 137.637 299.250 189.569 L 299.518 241.500 299.759 189.321 L 300 137.143 292.599 130.359 L 285.198 123.576 286.801 122.403 C 288.150 121.417, 287.959 121.280, 285.602 121.538 C 283.322 121.789, 280.619 120.060, 271.149 112.298 C 264.742 107.046, 259.588 102.431, 259.694 102.041 C 260.024 100.843, 258.265 100.746, 233 100.567 L 208.500 100.394 232.647 100.947 M 395.490 104.512 C 399.884 106.430, 403.623 108, 403.799 108 C 403.974 108, 403.886 108.375, 403.603 108.833 C 403.320 109.292, 403.699 109.667, 404.447 109.667 C 406.746 109.667, 416.034 116.136, 415.342 117.256 C 414.984 117.835, 415.158 118.021, 415.728 117.668 C 416.955 116.910, 422.239 120.804, 421.533 121.946 C 421.266 122.379, 421.937 123.538, 423.024 124.521 C 424.111 125.505, 425 125.937, 425 125.481 C 425 123.964, 429.999 129.321, 430.079 130.924 C 430.138 132.098, 430.295 132.155, 430.696 131.150 C 431.381 129.430, 422.557 120.400, 413.859 113.920 C 407.461 109.153, 391.640 100.987, 388.853 101.012 C 388.109 101.019, 391.095 102.594, 395.490 104.512 M 138.071 113.762 C 136.932 117.587, 136.031 121.342, 136.068 122.108 C 136.105 122.874, 137.205 119.912, 138.511 115.526 C 139.817 111.141, 140.718 107.385, 140.514 107.180 C 140.309 106.976, 139.210 109.938, 138.071 113.762 M 348 110.055 C 345.205 110.523, 346.910 110.610, 352.500 110.284 C 357.450 109.995, 361.688 109.588, 361.917 109.380 C 362.591 108.765, 352.885 109.236, 348 110.055 M 172 148 L 172 185 230.750 184.758 L 289.500 184.516 231.250 184.250 L 173 183.984 173 148.055 L 173 112.127 176.250 111.723 L 179.500 111.320 175.750 111.160 L 172 111 172 148 M 207.811 111.748 C 215.681 111.917, 228.281 111.917, 235.811 111.747 C 243.340 111.578, 236.900 111.439, 221.500 111.440 C 206.100 111.440, 199.940 111.579, 207.811 111.748 M 250.180 124.191 C 250.081 131.721, 250.338 138.092, 250.750 138.349 C 251.162 138.605, 251.381 134.469, 251.235 129.158 C 250.765 112.044, 250.365 110.159, 250.180 124.191 M 260 124.941 C 260 128.759, 260.337 132.092, 260.750 132.348 C 261.163 132.604, 261.345 130.365, 261.155 127.373 C 260.966 124.381, 261.300 121.344, 261.897 120.624 C 262.494 119.905, 262.687 119.020, 262.325 118.658 C 260.601 116.934, 260 118.558, 260 124.941 M 269.368 125.284 C 273.299 128.949, 274.785 130.926, 273.868 131.275 C 273.116 131.562, 273.497 131.747, 274.715 131.688 L 276.930 131.580 275.215 129.679 C 274.272 128.633, 271.250 125.986, 268.500 123.796 L 263.500 119.814 269.368 125.284 M 134.647 127.719 C 134.303 129.799, 134.094 136.900, 134.182 143.500 L 134.341 155.500 134.998 140 C 135.360 131.475, 135.569 124.374, 135.464 124.219 C 135.358 124.065, 134.991 125.640, 134.647 127.719 M 117.180 131.645 L 117 136.789 113.250 135.919 C 111.188 135.440, 108.150 135.086, 106.500 135.132 C 104.828 135.179, 106.377 135.740, 110 136.399 C 113.575 137.050, 116.865 137.289, 117.310 136.930 C 117.756 136.572, 117.950 134.079, 117.741 131.390 L 117.360 126.500 117.180 131.645 M 414.732 132.792 C 418.160 136.207, 421.522 139, 422.205 139 C 422.887 139, 422.437 138.294, 421.206 137.432 C 419.974 136.569, 419.206 135.475, 419.500 135.001 C 419.793 134.526, 419.568 133.851, 419 133.500 C 418.432 133.149, 418.286 132.330, 418.676 131.681 C 419.217 130.778, 419.044 130.775, 417.939 131.667 C 416.832 132.562, 416.090 132.539, 414.763 131.568 C 413.810 130.872, 413.249 130.009, 413.516 129.651 C 413.782 129.293, 413.699 129.226, 413.331 129.502 C 412.963 129.778, 411.726 129.235, 410.581 128.295 C 409.437 127.354, 411.304 129.378, 414.732 132.792 M 66.265 141.772 C 59.821 145.129, 50.013 152.167, 50.005 153.437 C 50.002 153.952, 51.237 153.237, 52.750 151.848 C 56.661 148.255, 60.939 145.440, 67.655 142.039 C 70.870 140.412, 73.050 139.072, 72.500 139.062 C 71.950 139.051, 69.144 140.271, 66.265 141.772 M 289.385 155 C 289.385 161.875, 289.545 164.688, 289.740 161.250 C 289.936 157.813, 289.936 152.188, 289.740 148.750 C 289.545 145.313, 289.385 148.125, 289.385 155 M 184.306 150.598 L 181.500 153.195 184.385 151.098 L 187.270 149 230.701 149 C 259.122 149, 274.886 149.365, 276.316 150.055 L 278.500 151.110 276.559 149.555 L 274.618 148 230.865 148 L 187.112 148 184.306 150.598 M 231.250 158.744 L 270 159.023 270 162.512 L 270 166 231.060 166 L 192.121 166 191.728 162.250 L 191.336 158.500 191.168 162.750 L 191 167 231.057 167 L 271.115 167 270.807 162.750 L 270.500 158.500 231.500 158.482 L 192.500 158.464 231.250 158.744 M 278.866 173.356 L 277.233 175.500 231.866 176.020 L 186.500 176.540 231.194 176.770 L 275.888 177 278.694 174.585 C 280.237 173.257, 281.275 171.955, 281 171.691 C 280.725 171.428, 279.765 172.177, 278.866 173.356 M 456.374 197.500 C 456.376 203.550, 456.541 205.896, 456.740 202.713 C 456.939 199.531, 456.937 194.581, 456.736 191.713 C 456.535 188.846, 456.372 191.450, 456.374 197.500 M 172.446 195.279 C 172.176 195.983, 172.088 205.321, 172.251 216.029 L 172.546 235.500 172.773 215.258 L 173 195.016 231.250 194.750 L 289.500 194.484 231.219 194.242 C 184.624 194.048, 172.839 194.257, 172.446 195.279 M 14.365 205.500 C 14.368 211, 14.536 213.122, 14.738 210.216 C 14.941 207.311, 14.939 202.811, 14.734 200.216 C 14.528 197.622, 14.363 200, 14.365 205.500 M 28.349 205 C 28.349 209.675, 28.522 211.588, 28.732 209.250 C 28.943 206.912, 28.943 203.088, 28.732 200.750 C 28.522 198.412, 28.349 200.325, 28.349 205 M 211.318 203.749 C 223.317 203.909, 242.667 203.909, 254.318 203.749 C 265.968 203.589, 256.150 203.458, 232.500 203.458 C 208.850 203.459, 199.318 203.590, 211.318 203.749 M 217.750 213.740 C 221.188 213.936, 226.813 213.936, 230.250 213.740 C 233.688 213.545, 230.875 213.385, 224 213.385 C 217.125 213.385, 214.313 213.545, 217.750 213.740 M 210.750 221.749 C 221.888 221.910, 240.113 221.910, 251.250 221.749 C 262.388 221.588, 253.275 221.456, 231 221.456 C 208.725 221.456, 199.613 221.588, 210.750 221.749 M 209.318 231.749 C 221.868 231.908, 242.118 231.908, 254.318 231.749 C 266.518 231.590, 256.250 231.460, 231.500 231.460 C 206.750 231.460, 196.768 231.590, 209.318 231.749 M 245.750 280.746 C 251.387 280.924, 260.613 280.924, 266.250 280.746 C 271.887 280.568, 267.275 280.422, 256 280.422 C 244.725 280.422, 240.113 280.568, 245.750 280.746 M 126.750 294.743 C 130.738 294.932, 137.262 294.932, 141.250 294.743 C 145.238 294.553, 141.975 294.397, 134 294.397 C 126.025 294.397, 122.763 294.553, 126.750 294.743 M 162.296 294.744 C 166.583 294.932, 173.333 294.931, 177.296 294.742 C 181.258 294.552, 177.750 294.399, 169.500 294.400 C 161.250 294.401, 158.008 294.556, 162.296 294.744 M 207.750 294.749 C 218.888 294.910, 237.113 294.910, 248.250 294.749 C 259.388 294.588, 250.275 294.456, 228 294.456 C 205.725 294.456, 196.613 294.588, 207.750 294.749 M 117.299 318.960 C 113.659 321.178, 111 325.650, 111 329.549 C 111 332.438, 113.625 338.650, 115.276 339.671 C 115.905 340.059, 116.003 339.814, 115.526 339.043 C 115.082 338.324, 115.278 337.446, 115.979 337.013 C 116.857 336.470, 116.894 336.053, 116.107 335.566 C 115.498 335.190, 115 335.385, 115 336 C 115 336.615, 114.502 336.810, 113.893 336.434 C 112.071 335.308, 114.932 334.144, 118.669 334.491 L 122.012 334.802 122.694 332.151 L 123.376 329.500 123.978 332 C 124.812 335.468, 129.212 335.963, 131.403 332.835 L 133 330.555 132.985 333.527 C 132.976 335.165, 132.640 335.988, 132.235 335.361 C 131.704 334.538, 131.133 334.617, 130.181 335.643 C 129.060 336.850, 129.248 336.994, 131.431 336.598 C 134.982 335.954, 134.647 337.635, 130.750 340.011 C 128.963 341.101, 127.962 341.994, 128.527 341.996 C 132.555 342.011, 137 335.156, 137 328.932 C 137 325.425, 136.385 324.150, 133.118 320.882 L 129.235 317 124.868 317.004 C 122.302 317.006, 119.179 317.813, 117.299 318.960 M 170.304 329.747 C 176.247 329.924, 185.697 329.923, 191.304 329.745 C 196.912 329.567, 192.050 329.422, 180.500 329.423 C 168.950 329.424, 164.362 329.570, 170.304 329.747 M 287.308 329.748 C 294.353 329.920, 305.603 329.919, 312.308 329.747 C 319.014 329.574, 313.250 329.433, 299.500 329.434 C 285.750 329.434, 280.264 329.576, 287.308 329.748 M 295.432 358.419 C 295.486 365.460, 295.816 367.424, 297 367.745 C 298.064 368.034, 298.150 367.903, 297.294 367.294 C 296.570 366.780, 295.943 363.048, 295.726 357.968 L 295.365 349.500 295.432 358.419 M 123.187 351.727 L 133.874 352.066 134.332 354.783 L 134.789 357.500 134.645 354.500 L 134.500 351.500 123.500 351.444 L 112.500 351.388 123.187 351.727 M 134.435 383 C 134.435 397.025, 134.575 402.762, 134.747 395.750 C 134.919 388.738, 134.919 377.262, 134.747 370.250 C 134.575 363.238, 134.435 368.975, 134.435 383 M 320.750 367.737 C 323.637 367.939, 328.363 367.939, 331.250 367.737 C 334.137 367.535, 331.775 367.370, 326 367.370 C 320.225 367.370, 317.863 367.535, 320.750 367.737 M 295.365 397.500 C 295.368 403, 295.536 405.122, 295.738 402.216 C 295.941 399.311, 295.939 394.811, 295.734 392.216 C 295.528 389.622, 295.363 392, 295.365 397.500" stroke="none" fill="#399ed7" fill-rule="evenodd"/><path d="M 191.750 177.732 C 194.088 177.943, 197.912 177.943, 200.250 177.732 C 202.588 177.522, 200.675 177.349, 196 177.349 C 191.325 177.349, 189.412 177.522, 191.750 177.732 M 227.750 177.748 C 236.688 177.914, 251.313 177.914, 260.250 177.748 C 269.188 177.582, 261.875 177.447, 244 177.447 C 226.125 177.447, 218.813 177.582, 227.750 177.748 M 299.986 210.235 L 299.500 242.969 295.734 246.735 L 291.968 250.500 232.748 250.774 C 189.930 250.971, 172.761 250.729, 170.759 249.900 C 169.237 249.270, 166.643 247.218, 164.995 245.342 L 162 241.930 161.912 229.215 C 161.864 222.222, 161.474 214.250, 161.046 211.500 L 160.267 206.500 160.063 212.500 C 159.951 215.800, 159.554 217.774, 159.180 216.888 C 158.636 215.597, 156.704 215.235, 149.500 215.076 C 144.550 214.966, 140.350 214.454, 140.167 213.938 C 139.718 212.675, 132 212.733, 132 214 C 132 214.583, 128.667 215, 124 215 C 119.333 215, 116 214.583, 116 214 C 116 213.450, 114.200 213, 112 213 C 109.800 213, 108 213.450, 108 214 C 108 214.611, 103.333 215, 96 215 C 88.667 215, 84 214.611, 84 214 C 84 213.392, 79.522 213, 72.567 213 L 61.135 213 60.500 211 C 59.329 207.312, 58 208.952, 58 214.083 C 58 220.314, 55.999 220.385, 54.482 214.208 C 53.277 209.300, 51 206.365, 51 209.718 C 51 210.883, 50.699 212.622, 50.330 213.582 C 49.873 214.773, 50.032 215.098, 50.830 214.605 C 51.565 214.151, 51.974 214.555, 51.930 215.691 C 51.843 217.935, 50.167 221.990, 50.070 220.191 C 50.032 219.471, 49.607 219.125, 49.126 219.422 C 47.226 220.596, 46.618 197.111, 48.365 190 C 48.702 188.625, 48.283 189.525, 47.433 192 C 45.245 198.371, 45.244 212.994, 47.431 220.500 C 49.663 228.161, 55.610 239.548, 58.612 241.910 C 59.888 242.913, 60.701 243.966, 60.419 244.248 C 60.136 244.531, 62.190 246.761, 64.982 249.203 C 70.463 253.997, 80.376 259.344, 88.455 261.862 L 93.500 263.434 227.500 263.750 C 314.877 263.956, 363.790 263.713, 368.083 263.050 C 376.041 261.821, 385 259.035, 385 257.789 C 385 257.290, 385.363 257.106, 385.806 257.380 C 386.249 257.654, 389.144 256.443, 392.238 254.689 C 405.836 246.981, 416.324 234.157, 421.445 218.976 C 423.860 211.817, 424.343 208.636, 424.556 198.500 L 424.807 186.500 424.118 197.639 C 423.726 203.986, 422.900 209.416, 422.198 210.262 C 421.520 211.078, 421.219 212.406, 421.528 213.213 C 421.838 214.020, 421.396 215.257, 420.546 215.962 C 419.695 216.668, 419 217.688, 419 218.229 C 419 218.770, 417.837 220.127, 416.416 221.245 C 414.629 222.651, 414.199 223.505, 415.022 224.014 C 415.877 224.542, 415.901 224.943, 415.107 225.434 C 414.498 225.810, 413.993 225.529, 413.985 224.809 C 413.974 223.858, 413.704 223.910, 413 225 C 412.467 225.825, 412.024 226.013, 412.015 225.417 C 412.007 224.821, 412.313 224.020, 412.696 223.638 C 413.506 222.827, 414.099 220.429, 414.275 217.250 C 414.344 216.012, 414.985 215, 415.700 215 C 416.415 215, 417 214.550, 417 214 C 417 212.671, 415.669 212.731, 414.278 214.122 C 413.661 214.739, 410.293 215.321, 406.793 215.414 C 402.645 215.525, 399.583 216.179, 397.993 217.292 C 395.953 218.721, 393.068 219, 380.327 219 L 365.099 219 364.120 217.250 C 363.035 215.311, 363.558 215.343, 329.500 215.125 L 310 215 310 213 C 310 211.900, 309.550 211, 309 211 C 308.450 211, 308 211.900, 308 213 C 308 216, 306.195 215.407, 305.716 212.250 L 305.300 209.500 305.150 212.250 C 304.971 215.540, 303.050 215.964, 302.884 212.750 L 302.768 210.500 302.134 212.500 C 301.785 213.600, 301.269 206.175, 300.986 196 L 300.472 177.500 299.986 210.235 M 218.750 183.748 C 227.688 183.914, 242.313 183.914, 251.250 183.748 C 260.188 183.582, 252.875 183.447, 235 183.447 C 217.125 183.447, 209.813 183.582, 218.750 183.748 M 173 216.893 L 173 238.786 174.582 239.393 C 176.708 240.209, 268.276 240.172, 279.846 239.350 L 289 238.701 289 216.850 L 289 195 231 195 L 173 195 173 216.893 M 175.250 196.702 C 173.734 197.266, 173.576 201.692, 175.054 202.185 C 175.634 202.378, 176.275 203.428, 176.478 204.518 C 176.681 205.608, 176.941 206.950, 177.055 207.500 C 177.170 208.050, 177.595 206.925, 178 205 L 178.737 201.500 178.868 204.750 C 178.941 206.537, 179.372 208, 179.827 208 C 180.282 208, 180.540 205.975, 180.400 203.500 C 180.253 200.904, 180.583 199, 181.180 199 C 181.749 199, 181.951 199.685, 181.629 200.523 C 181.153 201.766, 181.409 201.851, 183.023 200.988 C 184.297 200.306, 185 200.284, 185 200.927 C 185 201.580, 201.234 201.852, 231.917 201.713 C 262.756 201.573, 278.776 201.843, 278.667 202.500 C 278.575 203.050, 279.009 203.405, 279.631 203.290 C 280.253 203.174, 281.578 203.981, 282.575 205.083 C 284.095 206.762, 284.126 206.986, 282.767 206.464 C 281.540 205.993, 281.267 206.307, 281.646 207.754 C 282.175 209.776, 284.908 210.426, 285.132 208.583 C 285.204 207.988, 285.560 209.075, 285.924 211 C 286.468 213.885, 286.723 213.025, 287.373 206.109 C 287.990 199.546, 287.872 197.530, 286.831 196.854 C 285.490 195.983, 177.577 195.836, 175.250 196.702 M 27.349 207 C 27.349 211.675, 27.522 213.588, 27.732 211.250 C 27.943 208.912, 27.943 205.088, 27.732 202.750 C 27.522 200.412, 27.349 202.325, 27.349 207 M 183.795 203.098 C 184.765 204.393, 184.614 205.039, 182.996 206.503 L 181 208.310 181 217.703 L 181 227.095 183.646 229.548 L 186.292 232 231.090 232 L 275.888 232 278.575 229.689 L 281.261 227.379 281.261 218.213 C 281.261 208.203, 279.859 204.471, 275.737 203.510 C 272.152 202.673, 186.142 202.422, 186.654 203.250 C 187.405 204.463, 185.522 204.109, 183.998 202.750 C 182.824 201.703, 182.791 201.759, 183.795 203.098 M 452.618 218.780 C 451.642 223.026, 449.816 228.300, 448.560 230.500 C 447.304 232.700, 446.498 235.125, 446.768 235.889 C 447.100 236.826, 446.836 237.017, 445.960 236.475 C 445 235.882, 444.836 236.173, 445.332 237.586 C 445.899 239.202, 445.706 239.149, 444.092 237.250 C 442.267 235.103, 440.312 234.077, 441.399 235.837 C 442.253 237.218, 439.109 240.884, 437.194 240.740 C 434.999 240.574, 435.046 237.879, 437.332 232.782 C 438.250 230.737, 439 228.465, 439 227.732 C 439 226.999, 439.509 225.891, 440.132 225.268 C 440.754 224.646, 441.424 222.193, 441.621 219.818 L 441.979 215.500 439.239 223.525 C 435.448 234.632, 428.794 245.804, 420.585 254.847 C 416.764 259.056, 413.157 262.728, 412.569 263.006 C 411.981 263.285, 408.197 265.695, 404.160 268.363 C 390.209 277.582, 378.013 281, 359.069 281 L 347.270 281 344.635 283.073 C 341.509 285.531, 341.247 288.853, 343.920 292.139 L 345.841 294.500 360.170 294.365 C 380.983 294.170, 396.217 289.913, 411.266 280.089 C 426.622 270.065, 437.966 257.233, 446.070 240.723 C 450.344 232.014, 456.109 212.776, 454.828 211.495 C 454.589 211.255, 453.594 214.534, 452.618 218.780 M 192 217.500 L 192 221 231.470 221 L 270.939 221 270.808 217.500 L 270.676 214 231.338 214 L 192 214 192 217.500 M 16.084 217.590 C 15.865 225.660, 23.144 245.936, 27.001 248 C 29.943 249.575, 33.623 248.506, 35.589 245.504 L 37.203 243.040 34.006 235.361 C 32.248 231.137, 30.213 224.940, 29.484 221.590 C 28.528 217.194, 28.137 216.385, 28.079 218.683 C 28.025 220.851, 27.413 222.052, 26.158 222.450 C 24.708 222.910, 24.282 224.147, 24.158 228.267 C 24.044 232.010, 24.280 233.073, 24.984 232 C 25.579 231.095, 25.975 230.972, 25.985 231.691 C 25.993 232.346, 25.550 233.160, 25 233.500 C 24.450 233.840, 23.993 235.104, 23.985 236.309 C 23.973 238.030, 23.772 238.188, 23.051 237.048 C 22.545 236.249, 22.385 235.186, 22.694 234.686 C 23.003 234.186, 22.861 233.489, 22.378 233.138 C 21.140 232.238, 18.977 226.460, 17.459 220 C 16.469 215.784, 16.148 215.221, 16.084 217.590 M 40.455 259.455 C 37.615 262.294, 37.521 263.462, 39.823 267.281 C 43.288 273.027, 66.687 288.308, 73.500 289.274 C 74.600 289.430, 76.063 289.909, 76.750 290.338 C 77.438 290.767, 78.450 290.840, 79 290.500 C 79.550 290.160, 80 290.312, 80 290.838 C 80 291.364, 82.942 292.307, 86.539 292.933 C 94.690 294.353, 97.963 293.124, 99.401 288.104 L 100.373 284.709 97.436 282.359 C 95.761 281.019, 93.150 280.008, 91.355 280.005 C 86.692 279.998, 75.345 276.290, 68.345 272.487 C 64.960 270.647, 61.923 269.411, 61.595 269.738 C 61.268 270.065, 61 269.870, 61 269.303 C 61 268.736, 59.111 266.973, 56.801 265.386 C 54.492 263.799, 51.327 261.262, 49.767 259.750 C 46.263 256.352, 43.641 256.269, 40.455 259.455 M 115.635 283.073 C 112.575 285.479, 112.209 289.054, 114.722 291.989 L 116.444 294 221.100 294 C 303.853 294, 325.973 293.737, 326.797 292.744 C 327.370 292.054, 328.143 290.276, 328.515 288.795 C 329.044 286.690, 328.634 285.543, 326.641 283.550 L 324.091 281 221.180 281 L 118.270 281 115.635 283.073 M 189.199 349.744 C 193.984 349.927, 202.084 349.928, 207.199 349.746 C 212.315 349.564, 208.400 349.414, 198.500 349.413 C 188.600 349.412, 184.415 349.561, 189.199 349.744 M 314.750 349.743 C 318.738 349.932, 325.262 349.932, 329.250 349.743 C 333.238 349.553, 329.975 349.397, 322 349.397 C 314.025 349.397, 310.762 349.553, 314.750 349.743 M 113.349 383 C 113.349 387.675, 113.522 389.587, 113.732 387.250 C 113.943 384.913, 113.943 381.087, 113.732 378.750 C 113.522 376.413, 113.349 378.325, 113.349 383 M 308.199 387.744 C 312.984 387.927, 321.084 387.928, 326.199 387.746 C 331.315 387.564, 327.400 387.414, 317.500 387.413 C 307.600 387.412, 303.415 387.561, 308.199 387.744 M 189.250 394.745 C 194.062 394.928, 201.937 394.928, 206.750 394.745 C 211.563 394.561, 207.625 394.411, 198 394.411 C 188.375 394.411, 184.438 394.561, 189.250 394.745" stroke="none" fill="#404393" fill-rule="evenodd"/><path d="M 209.280 16.987 C 203.659 17.966, 195.334 19.999, 190.780 21.506 C 178.280 25.641, 161.856 34.287, 156.694 39.449 C 155.893 40.250, 155.020 40.687, 154.754 40.420 C 153.955 39.622, 130.621 63.257, 129.007 66.500 C 128.186 68.150, 126.836 70.175, 126.007 71 C 125.178 71.825, 124.352 73.175, 124.171 74 C 123.990 74.825, 123.268 76.175, 122.567 77 C 117.188 83.325, 105.125 116.459, 107.381 118.714 C 107.721 119.055, 108 118.583, 108 117.667 C 108 116.750, 108.619 116, 109.374 116 C 110.477 116, 110.647 117.783, 110.236 125 C 109.873 131.365, 110.056 134, 110.861 134 C 111.607 134, 112 131.533, 112 126.860 C 112 121.304, 112.376 119.446, 113.694 118.481 L 115.389 117.242 113.694 114.656 C 112.763 113.234, 112.007 111.042, 112.015 109.785 C 112.026 108.122, 112.265 107.869, 112.890 108.857 C 113.549 109.896, 113.925 109.930, 114.500 109 C 116.035 106.516, 116.929 110.513, 116.513 118 L 116.096 125.500 116.957 119 C 117.431 115.425, 118.532 111.150, 119.403 109.500 C 120.275 107.850, 120.990 105.487, 120.994 104.250 C 120.997 103.013, 121.344 102, 121.764 102 C 122.984 102, 126.115 93.995, 125.368 92.787 C 124.995 92.183, 125.146 91.972, 125.706 92.318 C 126.695 92.929, 130.748 85.305, 130.250 83.770 C 130.113 83.347, 130.385 83, 130.855 83 C 131.325 83, 133.678 80.188, 136.083 76.750 C 141.407 69.139, 155.345 55.283, 163.500 49.494 C 178.568 38.797, 197.659 31.128, 214.609 28.962 C 229.445 27.066, 229.884 26.973, 231.468 25.389 C 233.873 22.985, 233.395 18.489, 230.535 16.615 C 227.470 14.607, 222.448 14.695, 209.280 16.987 M 250.655 19.829 C 246.267 24.677, 250.086 28.571, 262.257 31.660 C 271.490 34.004, 282.829 39.026, 292 44.834 C 295.025 46.750, 298.043 48.321, 298.706 48.325 C 299.369 48.330, 299.711 48.658, 299.466 49.054 C 298.849 50.053, 309.205 57.741, 311.730 58.160 C 314.615 58.638, 318 55.246, 318 51.877 C 318 49.513, 316.544 47.938, 308.902 42.032 C 303.898 38.164, 299.221 35, 298.509 35 C 297.797 35, 296.978 34.386, 296.690 33.635 C 295.737 31.152, 275.764 22.383, 264.540 19.520 C 256.647 17.507, 252.676 17.595, 250.655 19.829 M 207.257 49.454 C 194.166 52.861, 180.096 59.944, 171.078 67.665 C 169.991 68.596, 169.301 69.678, 169.544 70.072 C 169.787 70.465, 168.864 71.068, 167.493 71.412 C 166.122 71.757, 165 72.498, 165 73.059 C 165 73.621, 163.213 75.780, 161.029 77.857 C 156.366 82.293, 152 88.457, 152 90.603 C 152 91.436, 151.573 91.854, 151.050 91.531 C 150.528 91.208, 149.588 91.901, 148.962 93.071 L 147.823 95.199 150.857 98.164 C 152.525 99.795, 154.474 102.450, 155.189 104.065 C 156.571 107.187, 158 107.946, 158 105.559 C 158 104.766, 158.338 103.910, 158.750 103.656 C 159.162 103.402, 159.500 104.838, 159.500 106.847 C 159.500 113.540, 156.458 115.153, 154.024 109.750 C 153.218 107.963, 152.678 105.938, 152.823 105.250 C 152.969 104.563, 152.630 104, 152.070 104 C 151.510 104, 150.353 102.650, 149.500 101 C 147.604 97.334, 146.669 97.237, 145.161 100.547 C 143.825 103.479, 143.580 111.378, 144.849 110.593 C 145.316 110.304, 146.292 111.178, 147.018 112.534 C 147.744 113.890, 148.728 115, 149.204 115 C 149.681 115, 149.613 114.145, 149.053 113.100 C 148.287 111.668, 148.395 111.063, 149.489 110.642 C 151.282 109.955, 154 112.523, 154 114.905 C 154 117.770, 155.125 118.063, 157.091 115.707 C 158.464 114.062, 158.964 113.882, 159.052 115 C 159.163 116.411, 161.943 106.948, 162.210 104.250 C 162.278 103.563, 162.852 103, 163.486 103 C 164.120 103, 165.650 101.838, 166.884 100.418 C 168.466 98.599, 169.627 98.064, 170.815 98.608 C 172.837 99.535, 182.098 99.753, 225.510 99.893 L 258.520 100 261.260 102.540 C 262.767 103.938, 264 104.735, 264 104.312 C 264 103.888, 265.012 104.555, 266.250 105.794 C 270.928 110.475, 276.152 113.879, 277.730 113.273 C 278.791 112.866, 279.085 113.053, 278.605 113.830 C 278.207 114.474, 278.396 115, 279.024 115 C 279.653 115, 279.981 115.558, 279.753 116.240 C 279.324 117.528, 283.040 121, 284.849 121 C 285.417 121, 286.207 120.474, 286.605 119.830 C 287.101 119.027, 286.767 118.875, 285.537 119.347 C 282.917 120.353, 280.789 118.263, 282.044 115.918 C 282.882 114.352, 282.756 114.154, 281.273 114.710 L 279.500 115.374 280.872 113.687 C 282.296 111.937, 281.627 111.487, 278.250 111.925 C 277.563 112.015, 277 111.430, 277 110.627 C 277 109.824, 276.438 108.940, 275.750 108.662 C 275.063 108.385, 275.962 108.122, 277.750 108.079 C 279.612 108.034, 281 108.500, 281 109.171 C 281 109.815, 281.642 111.053, 282.426 111.921 C 283.632 113.256, 286.237 113.454, 299.287 113.202 L 314.722 112.905 315.861 110.405 C 317.565 106.666, 317.172 104.070, 313.985 98 C 312.396 94.975, 310.596 91.384, 309.985 90.020 C 309.375 88.657, 308.341 87.210, 307.687 86.807 C 307.034 86.403, 306.500 85.606, 306.500 85.035 C 306.500 83.158, 297.889 73.951, 296.776 74.638 C 296.150 75.025, 295.977 74.846, 296.367 74.214 C 296.740 73.612, 296.308 72.530, 295.409 71.810 C 294.510 71.089, 292.392 69.037, 290.703 67.250 C 289.014 65.463, 287.026 64, 286.285 64 C 285.544 64, 284.678 63.325, 284.362 62.500 C 284.045 61.675, 283.439 61, 283.014 61 C 282.590 61, 279.693 59.465, 276.578 57.589 C 273.462 55.713, 266.545 52.713, 261.206 50.922 L 251.500 47.666 234 47.357 L 216.500 47.049 207.257 49.454 M 325.568 70.207 C 323.829 72.689, 325.234 77.672, 328.383 80.197 C 329.547 81.130, 330.527 82.480, 330.559 83.197 C 330.661 85.436, 332.099 89, 332.901 89 C 333.322 89, 333.692 89.563, 333.723 90.250 C 333.754 90.938, 335.013 95.100, 336.522 99.500 C 338.030 103.900, 339.439 108.123, 339.653 108.885 C 339.960 109.981, 341.241 110.105, 345.771 109.479 C 348.922 109.043, 355.689 108.580, 360.810 108.450 C 365.930 108.320, 370.393 107.941, 370.727 107.607 C 371.848 106.485, 372.942 106.987, 372.409 108.377 C 372.025 109.378, 373.196 109.952, 376.689 110.476 C 379.333 110.873, 383.612 112.001, 386.198 112.983 C 388.783 113.965, 391.179 114.487, 391.524 114.143 C 391.868 113.798, 392.569 114.265, 393.081 115.180 C 394.271 117.307, 399.653 118.533, 401.408 117.076 C 402.389 116.263, 403.028 116.329, 403.859 117.330 C 404.477 118.075, 404.659 119.008, 404.262 119.404 C 403.866 119.800, 404.770 119.658, 406.271 119.087 C 408.811 118.121, 409.416 118.368, 409.118 120.250 C 408.935 121.414, 410.464 121.135, 411.862 119.750 C 412.873 118.749, 413.321 118.848, 414.112 120.250 C 415.416 122.560, 417 122.482, 417 120.107 C 417 117.885, 415.520 117.156, 411.828 117.557 C 410.187 117.735, 408.937 117.279, 408.591 116.377 C 408.281 115.568, 407.233 115.040, 406.263 115.203 C 405.231 115.377, 404.500 114.878, 404.500 114 C 404.500 113.175, 405.063 112.612, 405.750 112.750 C 408.547 113.309, 406.697 111.331, 401.908 108.641 C 398.413 106.678, 396.495 106.105, 395.787 106.813 C 394.435 108.165, 391.987 107.198, 392.615 105.560 C 393.212 104.006, 389.678 102.502, 381 100.618 C 372.978 98.876, 373.931 98.977, 359.750 98.349 C 351.084 97.965, 348 97.489, 348 96.536 C 348 95.826, 347.325 94.685, 346.500 94 C 345.675 93.315, 345 91.904, 345 90.864 C 345 89.150, 343.286 85.255, 341.980 84 C 341.693 83.725, 340.916 82.263, 340.251 80.750 C 339.587 79.237, 338.246 77.993, 337.271 77.985 L 335.500 77.969 337 77 C 338.090 76.296, 338.142 76.026, 337.191 76.015 C 336.471 76.007, 336.160 75.550, 336.500 75 C 336.840 74.450, 336.641 74, 336.059 74 C 335.477 74, 335.113 73.508, 335.250 72.907 C 335.387 72.306, 334.600 71.293, 333.500 70.657 C 332.400 70.021, 331.275 69.275, 331 69 C 329.750 67.750, 326.835 68.397, 325.568 70.207 M 396 109.347 C 396 110.088, 394.988 111.227, 393.750 111.878 C 392.512 112.529, 392.258 112.848, 393.185 112.587 C 394.112 112.326, 395.016 112.548, 395.193 113.080 C 395.745 114.736, 402.133 112.928, 401.797 111.210 C 401.345 108.895, 398 108.788, 398 111.088 C 398 112.140, 397.541 113, 396.981 113 C 396.393 113, 396.228 111.942, 396.589 110.500 C 396.934 109.125, 396.943 108, 396.608 108 C 396.274 108, 396 108.606, 396 109.347 M 186 114.032 C 184.789 114.885, 184.982 115.059, 187 114.934 C 191.035 114.683, 191.731 115.178, 188.500 116 C 186.850 116.420, 197.313 116.817, 211.750 116.882 C 228.662 116.958, 238 116.644, 238 116 C 238 114.191, 239.756 114.957, 240.290 117 C 241.087 120.050, 243.182 119.429, 242.816 116.250 L 242.500 113.500 215 113.237 C 196.868 113.064, 186.989 113.335, 186 114.032 M 94.236 125.455 C 94.558 127.139, 94.202 128.045, 93.103 128.339 C 92.221 128.575, 94.313 128.820, 97.750 128.884 L 104 129 102.250 127.195 C 101.106 126.015, 100.245 125.755, 99.765 126.445 C 99.356 127.032, 99.024 126.502, 99.015 125.250 C 99.003 123.494, 98.426 123, 96.383 123 L 93.767 123 94.236 125.455 M 419.143 125.094 C 417.968 128.206, 418.411 128.835, 421.373 128.269 C 423.719 127.821, 424.286 125.872, 422.535 124.279 C 422.065 123.851, 422.010 124.175, 422.414 125 C 422.818 125.825, 422.451 125.642, 421.600 124.594 L 420.051 122.688 419.143 125.094 M 77.105 125.135 C 75.787 125.634, 74.940 126.274, 75.222 126.555 C 76.170 127.503, 85.216 127.268, 85.861 126.279 C 86.213 125.740, 87.175 125.056, 88 124.758 C 88.825 124.460, 87.250 124.219, 84.500 124.221 C 81.750 124.224, 78.422 124.635, 77.105 125.135 M 69.169 127.140 C 66.410 127.934, 66.045 128.349, 67.041 129.550 C 67.703 130.347, 69.153 131, 70.262 131 C 71.372 131, 72.779 131.653, 73.390 132.451 L 74.500 133.901 76.856 131.954 L 79.212 130.008 76.106 130.629 C 73.082 131.234, 72.319 130.316, 72.882 126.750 C 72.947 126.338, 72.888 126.041, 72.750 126.090 C 72.612 126.140, 71.001 126.612, 69.169 127.140 M 62.659 130.707 C 60.001 131.392, 57.117 134.571, 57.942 135.906 C 58.420 136.679, 59.268 136.340, 60.574 134.852 C 61.633 133.644, 61.868 133.028, 61.095 133.483 C 60.194 134.013, 59.926 133.929, 60.346 133.248 C 60.707 132.665, 61.972 132.441, 63.157 132.751 C 64.547 133.115, 65.077 132.934, 64.650 132.243 C 64.286 131.653, 64.553 130.943, 65.244 130.664 C 66.798 130.038, 65.148 130.065, 62.659 130.707 M 87.029 130.961 C 86.220 131.473, 85.819 132.152, 86.137 132.471 C 86.965 133.298, 93.880 133.453, 94.671 132.662 C 95.035 132.298, 94.385 132, 93.226 132 C 92.066 132, 90.840 131.550, 90.500 131 C 89.739 129.768, 88.930 129.759, 87.029 130.961 M 70.750 133.752 C 69.787 133.969, 69 134.590, 69 135.132 C 69 135.674, 69.412 135.863, 69.916 135.552 C 70.420 135.240, 71.907 135.394, 73.221 135.894 C 75.034 136.583, 76.201 136.344, 78.055 134.904 L 80.500 133.007 78.276 133.311 C 77.052 133.478, 75.744 133.923, 75.368 134.299 C 74.992 134.675, 74.193 134.617, 73.592 134.170 C 72.991 133.723, 71.713 133.535, 70.750 133.752 M 122.666 332.263 C 122.065 334.601, 121.573 334.931, 119.478 334.405 C 116.863 333.749, 116.660 333.950, 117.561 336.299 C 117.989 337.413, 118.942 337.577, 121.561 336.986 C 123.858 336.468, 125 336.574, 125 337.305 C 125 338.040, 125.395 338.005, 126.200 337.200 C 126.860 336.540, 128.210 336, 129.200 336 C 130.190 336, 131 335.523, 131 334.941 C 131 334.359, 131.450 334.160, 132 334.500 C 132.555 334.843, 133 334.103, 133 332.837 L 133 330.555 131.403 332.835 C 129.212 335.963, 124.812 335.468, 123.978 332 L 123.376 329.500 122.666 332.263" stroke="none" fill="#1a9dd3" fill-rule="evenodd"/><path d="M 133.195 80.750 C 130.930 83.958, 124.987 95.583, 125.029 96.721 C 125.045 97.150, 126.996 93.810, 129.365 89.300 C 131.734 84.790, 134.251 80.403, 134.958 79.550 C 135.666 78.698, 135.995 78, 135.691 78 C 135.386 78, 134.263 79.237, 133.195 80.750 M 331.412 89.250 C 333.234 93.237, 335.239 97.625, 335.868 99 L 337.011 101.500 336.424 99 C 335.705 95.934, 329.291 82, 328.599 82 C 328.324 82, 329.590 85.263, 331.412 89.250 M 151.911 87.250 C 147.057 93.901, 141.395 105.834, 138.468 115.584 C 136.285 122.855, 135.709 127.083, 135.348 138.500 C 134.808 155.519, 134.567 156.785, 131.599 158.137 C 129.736 158.986, 128.250 158.761, 124.377 157.042 C 113.912 152.399, 97.995 150.742, 86.799 153.130 C 80.149 154.549, 71 158.529, 71 160.004 C 71 160.617, 70.550 160.840, 70 160.500 C 69.450 160.160, 69 160.359, 69 160.941 C 69 161.523, 68.530 162, 67.956 162 C 66.626 162, 55.418 173.248, 55.751 174.250 C 55.888 174.662, 55.550 175, 55 175 C 54.450 175, 54 175.914, 54 177.031 C 54 178.149, 53.328 179.321, 52.506 179.636 C 51.684 179.952, 51.260 180.612, 51.565 181.105 C 51.869 181.597, 51.737 182, 51.272 182 C 50.806 182, 50.350 183.006, 50.257 184.235 C 50.165 185.465, 49.667 186.611, 49.151 186.783 C 48.635 186.955, 48.460 188.045, 48.764 189.204 C 49.100 190.490, 48.920 191.068, 48.302 190.687 C 47.678 190.301, 47.456 191.105, 47.723 192.780 C 48.074 194.984, 47.940 195.216, 47.013 194 C 46.056 192.745, 45.954 192.827, 46.389 194.500 C 46.675 195.600, 46.983 199.650, 47.074 203.500 C 47.315 213.718, 48.129 220.038, 49.126 219.422 C 49.607 219.125, 50.032 219.471, 50.070 220.191 C 50.167 221.990, 51.843 217.935, 51.930 215.691 C 51.974 214.555, 51.565 214.151, 50.830 214.605 C 50.032 215.098, 49.873 214.773, 50.330 213.582 C 50.699 212.622, 51 210.883, 51 209.718 C 51 206.365, 53.277 209.300, 54.482 214.208 C 55.999 220.385, 58 220.314, 58 214.083 C 58 208.952, 59.329 207.312, 60.500 211 L 61.135 213 72.567 213 C 79.522 213, 84 213.392, 84 214 C 84 214.611, 88.667 215, 96 215 C 103.333 215, 108 214.611, 108 214 C 108 213.450, 109.800 213, 112 213 C 114.200 213, 116 213.450, 116 214 C 116 214.583, 119.333 215, 124 215 C 128.667 215, 132 214.583, 132 214 C 132 212.733, 139.718 212.675, 140.167 213.938 C 140.350 214.454, 144.550 214.966, 149.500 215.076 C 156.704 215.235, 158.636 215.597, 159.180 216.888 C 159.554 217.774, 159.959 215.800, 160.080 212.500 L 160.300 206.500 161 211 C 161.385 213.475, 161.767 191.267, 161.850 161.650 L 162 107.800 165.400 104.400 L 168.800 101 186.567 101 C 196.338 101, 204.094 100.761, 203.801 100.468 C 203.509 100.175, 196.346 99.796, 187.885 99.626 C 179.423 99.455, 171.771 98.994, 170.879 98.600 C 169.920 98.177, 168.641 98.502, 167.748 99.395 C 166.918 100.225, 165.960 100.701, 165.619 100.452 C 165.279 100.204, 165.221 100.296, 165.491 100.658 C 166.147 101.535, 163.971 104.100, 163.053 103.533 C 162.657 103.288, 162.278 103.631, 162.210 104.294 C 161.933 106.995, 159.161 116.390, 159.052 115 C 158.964 113.882, 158.464 114.062, 157.091 115.707 C 155.125 118.063, 154 117.770, 154 114.905 C 154 112.523, 151.282 109.955, 149.489 110.642 C 148.395 111.063, 148.287 111.668, 149.053 113.100 C 149.613 114.145, 149.681 115, 149.204 115 C 148.728 115, 147.744 113.890, 147.018 112.534 C 146.292 111.178, 145.316 110.304, 144.849 110.593 C 143.580 111.378, 143.825 103.479, 145.161 100.547 C 146.669 97.237, 147.604 97.334, 149.500 101 C 150.353 102.650, 151.510 104, 152.070 104 C 152.630 104, 152.969 104.563, 152.823 105.250 C 152.678 105.938, 153.218 107.963, 154.024 109.750 C 156.458 115.153, 159.500 113.540, 159.500 106.847 C 159.500 104.838, 159.162 103.402, 158.750 103.656 C 158.338 103.910, 158 104.766, 158 105.559 C 158 107.946, 156.571 107.187, 155.189 104.065 C 154.474 102.450, 152.493 99.764, 150.785 98.094 L 147.681 95.059 151.819 89.030 C 156.533 82.161, 156.602 80.822, 151.911 87.250 M 112.154 95.757 C 109.513 102.605, 107.590 109.416, 105.591 119 L 105.070 121.500 94.785 121.618 C 87.732 121.698, 82.089 122.398, 76.829 123.843 C 67.278 126.467, 55.693 131.694, 56.507 133.012 C 56.843 133.555, 57.568 134, 58.118 134 C 58.668 134, 58.780 133.438, 58.367 132.750 C 57.804 131.813, 58.017 131.825, 59.219 132.799 C 60.455 133.799, 60.992 133.821, 61.565 132.894 C 62.037 132.131, 61.886 131.952, 61.155 132.405 C 60.520 132.797, 60 132.641, 60 132.059 C 60 131.477, 60.638 131, 61.418 131 C 62.198 131, 63.661 130.733, 64.668 130.406 C 66.192 129.911, 66.248 129.993, 65 130.890 C 64.175 131.484, 63.904 131.976, 64.398 131.985 C 64.892 131.993, 63.767 133.032, 61.898 134.294 L 58.500 136.589 56.869 134.582 L 55.239 132.576 50.870 135.467 C 44.916 139.407, 36.503 147.457, 32.003 153.520 C 27.269 159.897, 21.546 169.995, 22.655 170.015 C 23.120 170.024, 23.004 170.361, 22.398 170.765 C 20.818 171.819, 16.872 184.287, 16.540 189.274 C 16.385 191.598, 16.137 193.500, 15.989 193.500 C 15.841 193.500, 15.635 199.125, 15.531 206 C 15.427 212.875, 15.556 217.600, 15.817 216.500 C 16.126 215.201, 16.723 216.428, 17.522 220 C 18.941 226.349, 21.110 232.216, 22.378 233.138 C 22.861 233.489, 23.003 234.186, 22.694 234.686 C 22.385 235.186, 22.545 236.249, 23.051 237.048 C 23.772 238.188, 23.973 238.030, 23.985 236.309 C 23.993 235.104, 24.450 233.840, 25 233.500 C 25.550 233.160, 25.993 232.346, 25.985 231.691 C 25.975 230.972, 25.579 231.095, 24.984 232 C 24.280 233.073, 24.044 232.010, 24.158 228.267 C 24.282 224.147, 24.708 222.910, 26.158 222.450 C 27.199 222.119, 28.006 220.916, 28.014 219.683 C 28.021 218.482, 28.285 216.375, 28.600 215 C 29.060 212.997, 28.951 212.798, 28.055 214 C 27.214 215.128, 27.061 213.270, 27.436 206.500 C 27.935 197.475, 28.435 192.366, 29.001 190.500 C 29.168 189.950, 29.391 189.050, 29.496 188.500 C 29.602 187.950, 30.212 186.225, 30.851 184.666 C 31.491 183.107, 31.783 181.458, 31.501 181.001 C 31.219 180.545, 31.328 180.020, 31.744 179.835 C 32.160 179.651, 33.850 176.585, 35.500 173.023 C 40.537 162.149, 48.849 152.830, 60.117 145.424 C 72.983 136.968, 89.488 133.164, 105.542 134.954 C 110.882 135.550, 115.644 136.280, 116.125 136.577 C 116.606 136.875, 117 135.250, 117 132.966 C 117 127.346, 120.582 110.134, 123.060 103.847 C 124.167 101.038, 124.814 98.481, 124.497 98.164 C 124.180 97.847, 123.661 98.580, 123.344 99.794 C 123.026 101.007, 122.369 102, 121.883 102 C 121.398 102, 120.997 103.013, 120.994 104.250 C 120.990 105.487, 120.275 107.850, 119.403 109.500 C 118.532 111.150, 117.431 115.425, 116.957 119 L 116.096 125.500 116.513 118 C 116.944 110.257, 115.811 105.723, 114.379 109.455 L 113.650 111.354 112.895 109.427 L 112.141 107.500 112.070 109.785 C 112.032 111.042, 112.763 113.234, 113.694 114.656 L 115.389 117.242 113.694 118.481 C 112.376 119.446, 112 121.304, 112 126.860 C 112 131.533, 111.607 134, 110.861 134 C 110.056 134, 109.873 131.365, 110.236 125 C 110.647 117.783, 110.477 116, 109.374 116 C 108.619 116, 108 116.750, 108 117.667 C 108 118.583, 107.721 119.055, 107.381 118.714 C 106.420 117.753, 109.918 104.307, 113.239 96.198 C 114.884 92.182, 115.998 88.664, 115.714 88.380 C 115.430 88.097, 113.828 91.416, 112.154 95.757 M 312.986 95.698 C 317.265 104.436, 317.660 106.458, 315.861 110.405 L 314.722 112.905 299.287 113.202 C 286.237 113.454, 283.632 113.256, 282.426 111.921 C 281.642 111.053, 281 109.815, 281 109.171 C 281 108.500, 279.612 108.034, 277.750 108.079 C 275.962 108.122, 275.063 108.385, 275.750 108.662 C 277.257 109.270, 277.398 111.636, 275.980 112.513 C 274.979 113.131, 270.707 110.169, 266.250 105.765 C 265.012 104.542, 264 103.902, 264 104.342 C 264 104.783, 263.341 104.548, 262.535 103.821 C 259.178 100.794, 258.029 100, 257.005 100 C 256.411 100, 260.780 103.907, 266.713 108.682 C 282.733 121.575, 288.924 126.812, 294.750 132.398 L 300 137.432 300 148.553 C 300 172.482, 301.371 214.304, 302.095 212.453 L 302.859 210.500 302.930 212.750 C 303.029 215.926, 304.783 215.553, 305.284 212.250 L 305.700 209.500 305.850 212.250 C 306.020 215.376, 308 216.066, 308 213 C 308 211.900, 308.450 211, 309 211 C 309.550 211, 310 211.900, 310 213 L 310 215 329.500 215.125 C 363.558 215.343, 363.035 215.311, 364.120 217.250 L 365.099 219 380.327 219 C 393.068 219, 395.953 218.721, 397.993 217.292 C 399.583 216.179, 402.645 215.525, 406.793 215.414 C 410.293 215.321, 413.661 214.739, 414.278 214.122 C 415.669 212.731, 417 212.671, 417 214 C 417 214.550, 416.415 215, 415.700 215 C 414.985 215, 414.344 216.012, 414.275 217.250 C 414.099 220.429, 413.506 222.827, 412.696 223.638 C 412.313 224.020, 412.007 224.821, 412.015 225.417 C 412.024 226.012, 412.467 225.825, 413 225 C 413.704 223.910, 413.974 223.858, 413.985 224.809 C 413.993 225.529, 414.498 225.810, 415.107 225.434 C 415.901 224.943, 415.877 224.542, 415.022 224.014 C 414.199 223.505, 414.629 222.651, 416.416 221.245 C 417.837 220.127, 419 218.770, 419 218.229 C 419 217.688, 419.685 216.676, 420.523 215.981 C 421.364 215.283, 421.793 213.924, 421.482 212.943 C 421.172 211.967, 421.336 210.910, 421.846 210.595 C 422.356 210.280, 423.032 208.555, 423.348 206.761 C 424.357 201.038, 424.122 179.500, 423.051 179.500 C 422.792 179.500, 421.918 175.902, 421.775 174.250 C 421.715 173.563, 421.292 173, 420.833 173 C 420.375 173, 420.092 172.662, 420.205 172.250 C 420.598 170.813, 417.838 164, 416.863 164 C 416.324 164, 416.160 163.550, 416.500 163 C 416.840 162.450, 416.641 162, 416.059 162 C 415.477 162, 415 161.391, 415 160.646 C 415 159.901, 413.875 158.078, 412.500 156.595 C 411.125 155.111, 410 153.540, 410 153.103 C 410 150.913, 395.259 139.003, 388.243 135.526 C 369.380 126.176, 352.944 125.361, 328.342 132.554 C 324.612 133.645, 322.379 130.220, 321.588 122.197 C 320.492 111.075, 315.148 95.211, 310.574 89.500 C 309.693 88.400, 310.779 91.189, 312.986 95.698 M 360 98.070 C 374.697 99.125, 373.440 98.972, 380.897 100.623 C 389.498 102.527, 389.783 101.705, 381.286 99.501 C 376.891 98.362, 369.919 97.654, 361.500 97.493 L 348.500 97.244 360 98.070 M 337.458 105.492 C 338.406 110.725, 338.642 111.018, 341.809 110.900 L 344.500 110.801 342.033 110.113 C 340.279 109.624, 339.374 108.483, 338.899 106.162 C 337.925 101.397, 336.605 100.783, 337.458 105.492 M 390.791 103.239 C 392.051 103.846, 392.867 104.903, 392.604 105.588 C 392.341 106.274, 392.744 107.071, 393.499 107.361 C 394.253 107.651, 395.047 107.359, 395.262 106.714 C 395.721 105.338, 401.987 107.889, 406 111.085 L 408.500 113.075 406.500 112.788 C 405.262 112.610, 404.500 113.071, 404.500 113.999 C 404.500 114.823, 405.175 115.542, 406 115.596 C 410.109 115.868, 410.275 115.964, 409.090 117.392 C 408.454 118.157, 407.005 119.027, 405.868 119.324 C 404.732 119.621, 404.068 119.599, 404.392 119.274 C 404.717 118.950, 404.477 118.075, 403.859 117.330 C 402.996 116.290, 402.409 116.245, 401.336 117.136 C 399.612 118.567, 391.572 116.501, 392.571 114.884 C 392.918 114.324, 392.593 113.990, 391.850 114.141 C 391.108 114.293, 388.025 113.663, 385 112.741 C 374.881 109.660, 367.549 108.250, 361.500 108.223 L 355.500 108.196 359.500 109.040 C 361.700 109.505, 365.103 109.911, 367.062 109.942 C 373 110.038, 385.688 113.836, 394.331 118.104 C 402.779 122.275, 409.414 126.875, 418.054 134.548 C 420.811 136.997, 423.677 139, 424.423 139 C 427.007 139, 430.250 135.437, 430.250 132.598 C 430.250 126.932, 412.049 111.978, 396.661 105 C 390.538 102.224, 385.620 100.748, 390.791 103.239 M 176.250 111.810 L 173 112.127 173 147.563 C 173 175.202, 173.275 183.018, 174.250 183.083 C 175.195 183.146, 274.361 183.084, 286.750 183.013 L 289 183 289 162.500 L 289 142 271.674 142 L 254.349 142 252.174 139.686 L 250 137.371 249.996 124.436 L 249.992 111.500 214.746 111.497 C 195.361 111.495, 178.037 111.636, 176.250 111.810 M 277.347 112.501 C 275.858 113.601, 275.745 114.113, 276.761 115.144 C 277.783 116.180, 278.415 116.030, 280.094 114.350 C 281.811 112.634, 281.911 112.180, 280.680 111.708 C 279.863 111.394, 278.363 111.751, 277.347 112.501 M 186 114.032 C 184.789 114.885, 184.982 115.059, 187 114.934 C 191.035 114.683, 191.731 115.178, 188.500 116 C 186.850 116.420, 197.313 116.817, 211.750 116.882 C 228.662 116.958, 238 116.644, 238 116 C 238 114.191, 239.756 114.957, 240.290 117 C 241.087 120.050, 243.182 119.429, 242.816 116.250 L 242.500 113.500 215 113.237 C 196.868 113.064, 186.989 113.335, 186 114.032 M 280.593 115.550 L 279.044 117.099 282.573 120.198 C 285.327 122.616, 286.366 123.032, 287.301 122.089 C 288.236 121.147, 288.060 121.046, 286.500 121.628 L 284.500 122.374 286 120.500 L 287.500 118.626 285.623 119.330 C 282.909 120.349, 280.773 118.292, 282.056 115.895 C 283.286 113.598, 282.686 113.456, 280.593 115.550 M 411.484 117.340 C 409.474 118.515, 408.331 121, 409.800 121 C 410.240 121, 411.168 120.438, 411.862 119.750 C 412.873 118.749, 413.321 118.848, 414.112 120.250 C 415.431 122.588, 417 122.472, 417 120.035 C 417 117.330, 414.004 115.866, 411.484 117.340 M 400.672 118.661 C 399.778 119.555, 406.435 123.996, 408.697 124.015 C 410.227 124.028, 410.273 124.177, 409 125 C 408.058 125.609, 407.952 125.975, 408.715 125.985 C 409.383 125.993, 410.376 125.166, 410.921 124.147 L 411.913 122.294 409.308 122.792 C 407.604 123.118, 406.933 122.918, 407.368 122.214 C 407.733 121.622, 407.506 120.813, 406.862 120.415 C 406.077 119.930, 405.961 120.128, 406.510 121.015 C 407.112 121.990, 406.866 122.163, 405.582 121.670 C 404.622 121.301, 403.648 121, 403.418 121 C 403.188 121, 403 120.325, 403 119.500 C 403 117.941, 401.818 117.516, 400.672 118.661 M 261.102 125.600 L 260.891 132.103 268.483 131.801 L 276.075 131.500 270.288 126.238 C 267.104 123.344, 263.783 120.553, 262.906 120.036 L 261.312 119.097 261.102 125.600 M 420.238 123.225 C 418.899 124.854, 418.271 127.849, 419.250 127.934 C 419.663 127.970, 420.970 128, 422.155 128 L 424.310 128 422.655 126.171 C 421.745 125.165, 421 123.954, 421 123.480 C 421 123.006, 421.638 123.491, 422.418 124.557 C 423.198 125.624, 424.101 126.232, 424.424 125.909 C 424.748 125.586, 424.174 124.562, 423.150 123.635 C 421.662 122.289, 421.076 122.206, 420.238 123.225 M 94.236 125.455 C 94.558 127.139, 94.202 128.045, 93.103 128.339 C 92.221 128.575, 94.313 128.820, 97.750 128.884 L 104 129 102.250 127.195 C 101.106 126.015, 100.245 125.755, 99.765 126.445 C 99.356 127.032, 99.024 126.502, 99.015 125.250 C 99.003 123.494, 98.426 123, 96.383 123 L 93.767 123 94.236 125.455 M 77.105 125.135 C 75.787 125.634, 74.940 126.274, 75.222 126.555 C 76.170 127.503, 85.216 127.268, 85.861 126.279 C 86.213 125.740, 87.175 125.056, 88 124.758 C 88.825 124.460, 87.250 124.219, 84.500 124.221 C 81.750 124.224, 78.422 124.635, 77.105 125.135 M 411.406 125.152 C 411.015 125.785, 411.431 126.842, 412.332 127.501 C 413.232 128.159, 413.638 129.063, 413.234 129.509 C 412.831 129.955, 413.082 129.985, 413.794 129.574 C 415.212 128.756, 418.268 130.757, 417.500 132 C 417.237 132.425, 417.805 133.387, 418.761 134.137 L 420.500 135.500 419.259 133.908 C 418.576 133.032, 418.237 132.097, 418.505 131.829 C 418.773 131.561, 417.869 130.286, 416.496 128.996 C 415.123 127.707, 414 126.055, 414 125.326 C 414 123.695, 412.374 123.586, 411.406 125.152 M 69.169 127.140 C 66.410 127.934, 66.045 128.349, 67.041 129.550 C 67.703 130.347, 69.153 131, 70.262 131 C 71.372 131, 72.779 131.653, 73.390 132.451 L 74.500 133.901 76.856 131.954 L 79.212 130.008 76.106 130.629 C 73.082 131.234, 72.319 130.316, 72.882 126.750 C 72.947 126.338, 72.888 126.041, 72.750 126.090 C 72.612 126.140, 71.001 126.612, 69.169 127.140 M 87.029 130.961 C 86.220 131.473, 85.819 132.152, 86.137 132.471 C 86.965 133.298, 93.880 133.453, 94.671 132.662 C 95.035 132.298, 94.385 132, 93.226 132 C 92.066 132, 90.840 131.550, 90.500 131 C 89.739 129.768, 88.930 129.759, 87.029 130.961 M 70.750 133.752 C 69.787 133.969, 69 134.590, 69 135.132 C 69 135.674, 69.412 135.863, 69.916 135.552 C 70.420 135.240, 71.907 135.394, 73.221 135.894 C 75.034 136.583, 76.201 136.344, 78.055 134.904 L 80.500 133.007 78.276 133.311 C 77.052 133.478, 75.744 133.923, 75.368 134.299 C 74.992 134.675, 74.193 134.617, 73.592 134.170 C 72.991 133.723, 71.713 133.535, 70.750 133.752 M 184.306 150.411 L 181.500 152.822 180.988 162.161 C 180.573 169.708, 180.765 171.754, 181.988 172.824 L 183.500 174.148 182 173.382 L 180.500 172.616 181.863 174.297 C 182.613 175.222, 183.626 175.731, 184.113 175.430 C 184.601 175.129, 185 175.385, 185 176 C 185 176.615, 185.419 176.859, 185.931 176.543 C 186.443 176.226, 187.109 176.368, 187.412 176.858 C 188.125 178.011, 276 178.341, 276 177.190 C 276 176.712, 277.125 175.808, 278.500 175.182 L 281 174.043 281 163.610 L 281 153.178 277.923 150.589 L 274.847 148 230.979 148 L 187.112 148 184.306 150.411 M 434.372 150.555 C 432.509 153.398, 432.723 154.452, 437.475 165.790 C 441.137 174.527, 442.858 184.595, 442.895 197.500 C 442.912 203.550, 442.942 209.963, 442.962 211.750 C 442.982 213.537, 442.611 215, 442.138 215 C 441.665 215, 441.505 216.192, 441.784 217.649 C 442.132 219.473, 441.935 220.078, 441.148 219.591 C 440.319 219.079, 440.264 219.565, 440.949 221.365 C 441.623 223.140, 441.525 224.149, 440.604 224.914 C 439.895 225.502, 439.050 225.717, 438.726 225.392 C 438.401 225.068, 438.365 225.678, 438.645 226.749 C 438.925 227.820, 438.369 230.452, 437.409 232.598 C 435.050 237.876, 434.978 240.573, 437.194 240.740 C 439.109 240.884, 442.253 237.218, 441.399 235.837 C 440.312 234.077, 442.267 235.103, 444.092 237.250 C 445.706 239.149, 445.899 239.202, 445.332 237.586 C 444.836 236.173, 445 235.882, 445.960 236.475 C 446.836 237.017, 447.100 236.826, 446.768 235.889 C 446.498 235.125, 447.295 232.700, 448.540 230.500 C 449.785 228.300, 451.110 225.034, 451.483 223.241 C 451.857 221.449, 452.495 220.188, 452.900 220.438 C 453.306 220.689, 453.463 219.456, 453.248 217.697 C 452.946 215.222, 453.100 214.839, 453.928 216 C 454.737 217.136, 454.846 216.710, 454.374 214.250 C 453.995 212.275, 454.156 211, 454.785 211 C 455.468 211, 455.723 205.466, 455.536 194.750 C 455.309 181.709, 454.832 177.069, 453.124 171.253 C 449.707 159.623, 445.005 149.953, 442.260 148.909 C 438.313 147.408, 436.136 147.862, 434.372 150.555 M 192.678 159.655 C 192.305 160.028, 192 161.608, 192 163.167 L 192 166 231.063 166 L 270.127 166 269.813 162.750 L 269.500 159.500 231.428 159.238 C 210.489 159.094, 193.051 159.282, 192.678 159.655 M 175.250 196.702 C 173.734 197.266, 173.576 201.692, 175.054 202.185 C 175.634 202.378, 176.275 203.428, 176.478 204.518 C 176.681 205.608, 176.941 206.950, 177.055 207.500 C 177.170 208.050, 177.595 206.925, 178 205 L 178.737 201.500 178.868 204.643 C 178.944 206.439, 179.653 208.036, 180.523 208.371 C 181.759 208.845, 181.850 208.588, 181.005 207.009 C 179.789 204.737, 180.015 199, 181.320 199 C 181.812 199, 181.951 199.685, 181.629 200.523 C 181.153 201.766, 181.409 201.851, 183.023 200.988 C 184.297 200.306, 185 200.284, 185 200.927 C 185 201.580, 201.234 201.852, 231.917 201.713 C 262.756 201.573, 278.776 201.843, 278.667 202.500 C 278.575 203.050, 279.009 203.405, 279.631 203.290 C 280.253 203.174, 281.578 203.981, 282.575 205.083 C 284.095 206.762, 284.126 206.986, 282.767 206.464 C 281.540 205.993, 281.267 206.307, 281.646 207.754 C 282.175 209.776, 284.908 210.426, 285.132 208.583 C 285.204 207.988, 285.560 209.075, 285.924 211 C 286.468 213.885, 286.723 213.025, 287.373 206.109 C 287.990 199.546, 287.872 197.530, 286.831 196.854 C 285.490 195.983, 177.577 195.836, 175.250 196.702 M 201.250 250.749 C 217.612 250.904, 244.387 250.904, 260.750 250.749 C 277.113 250.595, 263.725 250.469, 231 250.469 C 198.275 250.469, 184.887 250.595, 201.250 250.749 M 281.750 294.748 C 289.587 294.917, 302.412 294.917, 310.250 294.748 C 318.087 294.579, 311.675 294.441, 296 294.441 C 280.325 294.441, 273.912 294.579, 281.750 294.748 M 134 334.833 C 134 335.475, 133.662 335.947, 133.250 335.882 C 132.838 335.816, 132.050 335.883, 131.500 336.030 C 130.950 336.176, 129.600 336.342, 128.500 336.398 C 127.400 336.454, 126.607 337.046, 126.738 337.714 C 126.875 338.414, 126.348 338.687, 125.494 338.359 C 124.679 338.046, 124.224 337.446, 124.484 337.026 C 124.744 336.606, 123.504 336.566, 121.728 336.937 C 119.399 337.425, 118.131 337.179, 117.176 336.057 C 116.448 335.200, 116.137 335.063, 116.485 335.750 C 116.833 336.438, 116.641 337, 116.059 337 C 115.477 337, 115 336.550, 115 336 C 115 335.450, 114.540 335, 113.977 335 C 111.911 335, 116.228 339.884, 119.215 340.925 C 123.444 342.399, 126.571 342.273, 130.020 340.490 C 132.980 338.959, 135.645 335.312, 134.581 334.248 C 134.261 333.928, 134 334.192, 134 334.833 M 113.370 365 C 113.370 370.775, 113.535 373.137, 113.737 370.250 C 113.939 367.363, 113.939 362.637, 113.737 359.750 C 113.535 356.863, 113.370 359.225, 113.370 365 M 113.370 401 C 113.370 406.775, 113.535 409.137, 113.737 406.250 C 113.939 403.363, 113.939 398.637, 113.737 395.750 C 113.535 392.863, 113.370 395.225, 113.370 401 M 173.250 414.748 C 180.813 414.917, 193.188 414.917, 200.750 414.748 C 208.313 414.578, 202.125 414.439, 187 414.439 C 171.875 414.439, 165.688 414.578, 173.250 414.748 M 279.250 414.735 C 281.863 414.941, 286.137 414.941, 288.750 414.735 C 291.363 414.529, 289.225 414.360, 284 414.360 C 278.775 414.360, 276.637 414.529, 279.250 414.735" stroke="none" fill="#2974ad" fill-rule="evenodd"/><path d="M 162.500 330.599 C 163.600 330.778, 178 331.066, 194.500 331.237 L 224.500 331.549 227.134 333.313 C 228.582 334.284, 230.157 335.007, 230.634 334.920 C 232.768 334.533, 234.060 335.094, 233.420 336.130 C 232.995 336.817, 233.266 337.074, 234.111 336.786 C 234.875 336.526, 236.287 337.211, 237.250 338.310 C 238.213 339.408, 239 339.761, 239 339.094 C 239 338.427, 239.498 338.190, 240.107 338.566 C 240.882 339.045, 240.817 339.495, 239.890 340.068 C 239.163 340.518, 238.030 340.439, 237.373 339.894 C 236.578 339.235, 235.961 339.254, 235.530 339.951 C 235.174 340.528, 235.246 341.007, 235.691 341.015 C 236.136 341.024, 235.825 341.467, 235 342 C 234 342.646, 233.917 342.974, 234.750 342.985 C 235.542 342.994, 236 344.487, 236 347.059 C 236 349.788, 236.365 350.892, 237.114 350.429 C 237.794 350.009, 238.016 348.154, 237.683 345.672 C 237.326 343.010, 237.454 342.104, 238.053 343.052 C 238.880 344.359, 239.425 343.692, 239.118 341.750 C 239.053 341.337, 239.450 341, 240 341 C 240.550 341, 241 341.477, 241 342.059 C 241 342.641, 241.480 342.821, 242.067 342.458 C 242.655 342.095, 243.381 342.743, 243.684 343.899 C 243.986 345.055, 244.569 346, 244.979 346 C 245.389 346, 245.610 347.050, 245.469 348.333 C 245.310 349.784, 245.740 350.667, 246.606 350.667 C 247.373 350.667, 248 350.292, 248 349.833 C 248 349.375, 247.564 349, 247.031 349 C 246.499 349, 246.297 348.390, 246.583 347.645 C 247.516 345.213, 240.721 337.682, 235.028 334.837 C 226.707 330.680, 219.918 329.988, 188.918 330.136 C 173.288 330.211, 161.400 330.419, 162.500 330.599 M 275.544 330.929 C 275.122 331.611, 276.129 332, 278.316 332 C 280.205 332, 283.269 332.263, 285.125 332.584 C 287.681 333.027, 288.136 332.909, 287 332.100 C 285.920 331.330, 292.801 331.026, 311.583 331.015 C 325.929 331.007, 337.970 331.303, 338.341 331.674 C 338.711 332.045, 340.024 332.424, 341.257 332.517 C 342.491 332.610, 344.850 332.984, 346.500 333.348 L 349.500 334.011 346 332.271 L 342.500 330.531 309.353 330.194 C 286.523 329.963, 276 330.191, 275.544 330.929 M 160.946 351.583 C 160.916 362.538, 160.778 379.515, 160.640 389.311 C 160.501 399.107, 160.750 407.346, 161.194 407.620 C 161.637 407.894, 162.059 398.754, 162.132 387.309 C 162.205 375.711, 162.597 367.828, 163.016 369.500 C 163.575 371.727, 163.652 371.341, 163.317 368 C 163.068 365.525, 162.661 356.553, 162.411 348.062 C 162.161 339.571, 161.742 332.408, 161.478 332.145 C 161.215 331.882, 160.976 340.629, 160.946 351.583 M 177.750 332.740 C 181.188 332.936, 186.813 332.936, 190.250 332.740 C 193.688 332.545, 190.875 332.385, 184 332.385 C 177.125 332.385, 174.313 332.545, 177.750 332.740 M 275.592 339.754 C 275.643 343.464, 275.755 361.238, 275.842 379.250 C 275.929 397.262, 276.337 412, 276.750 412 C 277.163 412.001, 277.376 396.613, 277.224 377.805 L 276.948 343.609 278.474 342.755 C 279.313 342.285, 279.993 341.135, 279.985 340.200 L 279.969 338.500 279 340 C 278.220 341.207, 278.028 341.049, 278.015 339.191 C 278.005 337.608, 278.393 337.118, 279.250 337.633 C 280.141 338.168, 280.117 337.911, 279.164 336.736 C 278.429 335.829, 278.118 334.618, 278.473 334.044 C 278.830 333.465, 278.312 333.002, 277.309 333.004 L 275.500 333.008 275.592 339.754 M 280.869 334.342 C 281.481 335.080, 281.795 335.872, 281.565 336.102 C 281.335 336.332, 283.410 336.487, 286.176 336.446 C 288.942 336.405, 291.378 336.851, 291.590 337.436 C 291.801 338.021, 292.092 340.750, 292.237 343.500 C 292.382 346.250, 292.950 348.831, 293.500 349.235 C 294.072 349.655, 293.786 349.976, 292.833 349.985 C 291.917 349.993, 290.995 349.485, 290.785 348.856 C 290.576 348.227, 289.188 347.583, 287.702 347.425 L 285 347.136 285.136 350.818 C 285.227 353.262, 285.421 353.723, 285.714 352.189 C 286.162 349.840, 288.541 348.208, 289.752 349.418 C 290.118 349.785, 290.713 352.203, 291.075 354.792 L 291.733 359.500 291.866 355.250 C 291.942 352.847, 292.489 351, 293.125 351 C 293.907 351, 294.114 353.616, 293.802 359.550 C 293.555 364.253, 293.724 368.329, 294.176 368.609 C 295.544 369.454, 336.380 369.704, 338.083 368.877 C 339.152 368.358, 339.667 368.578, 339.667 369.554 C 339.667 370.414, 338.693 371, 337.262 371 C 334.934 371, 331.271 373.605, 332.238 374.572 C 332.501 374.834, 333.284 374.362, 333.980 373.524 C 334.676 372.686, 336.427 372.020, 337.872 372.045 L 340.500 372.090 337.500 373.412 L 334.500 374.733 338 374.483 L 341.500 374.232 341.228 370.189 C 341.073 367.885, 341.462 365.833, 342.132 365.418 C 342.869 364.963, 343.042 365.122, 342.595 365.845 C 342.203 366.480, 342.332 367, 342.882 367 C 343.432 367, 344.160 366.550, 344.500 366 C 344.840 365.450, 344.638 365, 344.051 365 C 343.454 365, 343.006 363.127, 343.035 360.750 C 343.111 354.417, 342.683 352.636, 340.733 351.182 C 339.762 350.456, 339.226 349.444, 339.542 348.932 C 340.247 347.791, 340.732 347.811, 317.675 347.994 L 298.850 348.144 298.309 346.072 C 298.011 344.932, 297.118 344, 296.324 344 C 295.531 344, 295.157 343.555, 295.493 343.011 C 295.849 342.435, 295.426 342.283, 294.478 342.647 C 293.142 343.159, 292.911 342.669, 293.177 339.885 C 293.435 337.179, 293.935 336.500, 295.667 336.500 C 296.858 336.500, 298.108 336.226, 298.443 335.891 C 299.326 335.008, 288.912 333.940, 286.250 334.641 C 284.906 334.995, 284 334.783, 284 334.117 C 284 333.502, 283.045 333, 281.878 333 C 280.215 333, 279.997 333.291, 280.869 334.342 M 348.894 335.724 L 347.500 337.500 349.161 336.201 C 350.279 335.328, 351.034 335.246, 351.470 335.951 C 351.826 336.528, 351.586 337, 350.937 337 C 350.102 337, 350.156 337.483, 351.120 338.644 L 352.484 340.288 350.325 339.603 C 348.723 339.095, 348.222 339.309, 348.387 340.430 C 348.509 341.262, 348.994 342.293, 349.465 342.721 C 349.935 343.149, 350.029 342.989, 349.672 342.364 C 349.298 341.709, 349.953 340.984, 351.218 340.653 C 353.955 339.937, 354.927 340.766, 352.971 342.149 C 351.729 343.027, 351.756 343.107, 353.144 342.667 C 354.077 342.370, 355.663 343.086, 356.813 344.322 C 359.215 346.905, 360.783 353.898, 359.182 354.888 C 358.410 355.365, 358.405 356.758, 359.165 359.752 C 360.270 364.105, 359.596 369.486, 358.065 368.540 C 357.582 368.242, 357.380 366.986, 357.614 365.749 L 358.041 363.500 357.129 365.500 C 356.507 366.863, 356.629 367.935, 357.509 368.865 C 358.567 369.983, 358.530 370.889, 357.301 373.865 C 355.059 379.296, 353.126 381.138, 350.911 379.953 C 348.764 378.803, 349.450 375.852, 351.667 376.702 C 352.888 377.171, 352.919 377.436, 351.834 378.124 C 351.030 378.634, 350.948 378.975, 351.628 378.985 C 352.663 378.999, 355.722 376.107, 354.872 375.917 C 351.618 375.189, 349.740 375.616, 348.845 377.290 C 348.083 378.714, 348.121 379.457, 348.982 379.989 C 351.980 381.842, 348.730 383.868, 343.305 383.528 C 341.457 383.412, 340.192 383.786, 340.305 384.414 C 340.412 385.011, 338.767 385.642, 336.650 385.816 C 334.112 386.025, 333.025 385.769, 333.459 385.066 C 333.821 384.480, 333.641 384, 333.059 384 C 332.477 384, 332 384.450, 332 385 C 332 385.629, 325.358 386, 314.073 386 L 296.147 386 295.689 384.250 C 295.345 382.933, 295.203 383.057, 295.116 384.750 C 295.052 385.988, 294.523 387, 293.941 387 C 293.359 387, 293.160 386.550, 293.500 386 C 293.840 385.450, 293.686 385, 293.159 385 C 292.631 385, 292.405 386.688, 292.657 388.750 C 293.843 398.462, 294.164 406.780, 293.373 407.270 C 292.893 407.566, 292.546 405.940, 292.603 403.655 L 292.706 399.500 292.291 403.333 C 291.990 406.117, 291.492 407.019, 290.470 406.627 C 289.697 406.330, 288.755 406.587, 288.378 407.198 C 287.993 407.821, 288.142 408.031, 288.716 407.675 C 289.280 407.327, 290.741 407.908, 291.963 408.968 L 294.185 410.895 288.342 411.258 L 282.500 411.622 288.500 412.002 L 294.500 412.383 285 413 L 275.500 413.617 285.250 413.809 L 295 414 295 400.500 L 295 387 317.318 387 C 342.288 387, 347.520 386.117, 353.465 380.897 C 355.540 379.074, 357.753 375.626, 359.052 372.190 L 361.202 366.500 360.767 356.285 L 360.331 346.070 357.416 341.392 C 355.812 338.819, 353.552 336.091, 352.394 335.331 L 350.288 333.948 348.894 335.724 M 227.735 343.770 C 227.538 344.172, 227.455 345.512, 227.552 346.750 C 227.744 349.220, 227.257 349.459, 225 348 L 223.500 347.031 225.250 347.015 C 226.213 347.007, 227 346.550, 227 346 C 227 344.466, 224.286 344.813, 223.666 346.427 C 222.969 348.245, 225.169 350.102, 227.617 349.762 C 228.653 349.618, 229.613 349.950, 229.750 350.500 C 229.887 351.050, 229.587 351.500, 229.083 351.500 C 227.153 351.500, 226.908 352.921, 228.355 355.720 C 229.182 357.319, 230.280 362.423, 230.795 367.063 C 231.561 373.960, 231.786 374.679, 232.024 371 C 232.184 368.525, 232.252 365.825, 232.174 365 C 231.704 360, 231.206 357.953, 230.152 356.683 C 228.849 355.113, 229.660 351.672, 231.121 352.575 C 231.622 352.885, 231.774 353.556, 231.458 354.067 C 230.790 355.149, 233.049 358.703, 234.461 358.792 C 234.989 358.825, 235.745 359.673, 236.141 360.676 L 236.859 362.500 236.930 360.809 C 236.968 359.879, 236.543 358.835, 235.984 358.490 C 235.425 358.144, 235.223 357.448, 235.536 356.942 C 235.848 356.437, 235.350 356.312, 234.427 356.666 L 232.751 357.309 234.379 354.825 C 235.933 352.454, 235.703 351, 233.774 351 C 233.284 351, 233.158 351.446, 233.495 351.992 C 233.832 352.538, 233.723 353.672, 233.253 354.513 C 232.644 355.601, 232.369 355.028, 232.298 352.521 C 232.243 350.584, 232.607 349, 233.107 349 C 234.382 349, 232.076 345.529, 229.898 344.169 C 228.905 343.548, 227.932 343.369, 227.735 343.770 M 280.447 375 C 280.447 392.875, 280.582 400.188, 280.748 391.250 C 280.914 382.313, 280.914 367.688, 280.748 358.750 C 280.582 349.813, 280.447 357.125, 280.447 375 M 199.750 345.732 C 202.088 345.943, 205.912 345.943, 208.250 345.732 C 210.588 345.522, 208.675 345.349, 204 345.349 C 199.325 345.349, 197.412 345.522, 199.750 345.732 M 180.427 347.764 L 180.426 349.500 198.225 349.206 C 214.394 348.939, 218.286 349.279, 224.500 351.497 C 225.620 351.897, 225.180 351.287, 223.500 350.112 L 220.500 348.013 201.450 348.007 C 190.277 348.003, 181.992 347.592, 181.414 347.014 C 180.767 346.367, 180.428 346.624, 180.427 347.764 M 295 358.500 L 295 368 316.326 368 L 337.651 368 339.957 365.545 L 342.263 363.091 341.760 357.859 C 341.394 354.042, 340.652 352.137, 339.018 350.814 L 336.778 349 315.889 349 L 295 349 295 358.500 M 177.539 354.646 C 177.127 356.838, 177.269 358.548, 177.894 358.934 C 178.488 359.302, 179.069 364.696, 179.251 371.538 L 179.570 383.500 179.785 367.250 C 179.989 351.849, 179.051 346.586, 177.539 354.646 M 244.909 352.077 C 243.785 352.789, 243.871 352.972, 245.333 352.985 C 246.374 352.993, 246.968 353.541, 246.708 354.250 C 246.456 354.938, 245.744 355.387, 245.125 355.250 C 243.444 354.876, 243.767 356.697, 245.500 357.362 C 246.325 357.678, 247.039 357.389, 247.086 356.719 C 247.133 356.048, 247.542 356.728, 247.994 358.228 C 248.868 361.132, 249.056 382.313, 248.254 387.740 C 247.991 389.522, 247.418 390.759, 246.981 390.488 C 246.544 390.218, 246.443 390.977, 246.756 392.175 L 247.325 394.353 248.304 391.926 C 249.601 388.712, 250.421 366.754, 249.549 358.610 C 248.853 352.118, 247.610 350.367, 244.909 352.077 M 283.349 359 C 283.349 363.675, 283.522 365.587, 283.732 363.250 C 283.943 360.913, 283.943 357.087, 283.732 354.750 C 283.522 352.413, 283.349 354.325, 283.349 359 M 114 383 L 114 414 123.944 414 L 133.888 414 133.970 384.649 C 134.015 368.506, 133.767 354.556, 133.419 353.649 C 132.893 352.279, 131.196 352, 123.393 352 L 114 352 114 383 M 115.338 381 L 115.500 408.500 120 409.160 L 124.500 409.819 119.875 409.660 C 116.275 409.535, 115.299 409.832, 115.470 411 C 115.762 412.984, 132.093 413.221, 132.750 411.250 C 133.023 410.430, 132.019 409.959, 129.833 409.882 L 126.500 409.763 129.500 409.122 L 132.500 408.480 132.231 381.990 C 132.083 367.421, 131.970 354.943, 131.981 354.261 C 131.992 353.547, 130.941 353.110, 129.500 353.229 C 128.125 353.343, 127 353.736, 127 354.101 C 127 354.467, 126.099 355.002, 124.999 355.290 C 123.898 355.578, 123.221 355.451, 123.496 355.007 C 123.770 354.564, 122.010 354.043, 119.585 353.850 L 115.176 353.500 115.338 381 M 124.750 357.662 C 125.602 358.006, 126 360.686, 126 366.083 C 126 370.694, 126.418 374, 127 374 C 128.084 374, 128.361 362.949, 127.370 359.250 C 127.038 358.012, 126.032 357.036, 125.133 357.079 C 124.097 357.129, 123.957 357.342, 124.750 357.662 M 117.422 379 C 117.422 390.275, 117.568 394.887, 117.746 389.250 C 117.924 383.613, 117.924 374.387, 117.746 368.750 C 117.568 363.113, 117.422 367.725, 117.422 379 M 121.790 378.999 C 121.967 391.211, 122.462 399, 123.061 399 C 124.401 399, 123.846 359.781, 122.500 359.331 C 121.849 359.114, 121.601 365.982, 121.790 378.999 M 288 366.713 C 288 368.314, 288.585 369, 289.950 369 C 291.023 369, 292.271 369.662, 292.724 370.472 C 293.177 371.281, 294.437 372.082, 295.524 372.251 C 296.611 372.420, 297.950 372.826, 298.500 373.154 C 299.050 373.482, 300.400 373.347, 301.500 372.854 L 303.500 371.959 301.250 372.386 C 299.842 372.653, 299 372.321, 299 371.500 C 299 370.678, 298.250 370.383, 296.995 370.712 C 294.381 371.395, 292 369.359, 292 366.440 C 292 364.741, 291.468 364.164, 290 364.275 C 288.627 364.378, 288 365.142, 288 366.713 M 316.500 370.943 L 324.500 371.583 316.500 372.153 C 310.914 372.551, 311.947 372.623, 319.923 372.389 C 326.205 372.205, 331.690 371.705, 332.111 371.277 C 332.533 370.850, 327.393 370.456, 320.689 370.401 L 308.500 370.302 316.500 370.943 M 125.349 383 C 125.349 387.675, 125.522 389.587, 125.732 387.250 C 125.943 384.913, 125.943 381.087, 125.732 378.750 C 125.522 376.413, 125.349 378.325, 125.349 383 M 230.453 380.750 C 229.785 385.488, 228.446 388.411, 225.673 391.184 L 224.208 392.649 225.967 393.748 C 227.451 394.674, 227.709 394.505, 227.613 392.673 C 227.528 391.041, 227.998 390.573, 229.500 390.792 C 230.904 390.996, 231.118 390.824, 230.216 390.212 C 228.708 389.188, 229.535 386.392, 231.577 385.609 C 232.360 385.308, 233 384.572, 233 383.972 C 233 383.373, 232.539 383.167, 231.976 383.515 C 231.304 383.930, 231.176 382.749, 231.604 380.074 C 231.962 377.833, 232.001 376, 231.689 376 C 231.377 376, 230.821 378.137, 230.453 380.750 M 291.736 380.250 C 288.545 382.673, 286.708 391, 289.364 391 C 290.294 391, 290.692 389.806, 290.614 387.250 C 290.534 384.624, 290.897 383.582, 291.824 383.775 C 292.553 383.926, 292.862 383.585, 292.511 383.018 C 292.160 382.450, 292.577 381.716, 293.437 381.386 C 295.056 380.764, 295.614 379, 294.191 379 C 293.746 379, 292.642 379.563, 291.736 380.250 M 283.385 395 C 283.385 401.875, 283.545 404.688, 283.740 401.250 C 283.936 397.813, 283.936 392.188, 283.740 388.750 C 283.545 385.313, 283.385 388.125, 283.385 395 M 219.194 394.201 C 217.375 394.688, 207.887 394.954, 198.109 394.793 C 184.290 394.565, 180.331 394.782, 180.332 395.764 C 180.333 396.541, 181.138 396.834, 182.417 396.524 C 183.563 396.246, 183.938 396.277, 183.250 396.593 C 181.238 397.517, 181.815 399.193, 183.916 398.527 C 184.970 398.192, 186.121 398.387, 186.475 398.959 C 186.829 399.532, 186.416 400, 185.559 400 C 184.702 400, 184 400.708, 184 401.573 C 184 404.453, 187.491 402.704, 187.600 399.771 C 187.656 398.284, 187.318 397.303, 186.850 397.592 C 186.383 397.882, 186 397.641, 186 397.059 C 186 396.362, 190.982 396, 200.571 396 C 212.190 396, 215.447 396.304, 216.643 397.500 C 217.468 398.325, 218.673 398.993, 219.321 398.985 C 220.023 398.976, 219.905 398.593, 219.029 398.039 C 217.175 396.867, 217.966 396.055, 221.605 395.395 C 225.014 394.777, 225.521 394.404, 223.793 393.781 C 223.082 393.525, 221.012 393.714, 219.194 394.201 M 244.486 395.500 C 245.306 399.003, 241.412 401.991, 239.050 399.672 C 238.135 398.773, 237.932 398.849, 238.179 400 C 238.355 400.825, 238.034 401.420, 237.464 401.321 C 236.895 401.223, 236.429 402.011, 236.429 403.071 C 236.429 404.132, 236.782 405, 237.214 405 C 237.646 405, 238 404.339, 238 403.531 C 238 402.628, 238.585 402.287, 239.521 402.647 C 240.735 403.112, 240.481 403.715, 238.271 405.621 C 236.747 406.935, 234.914 407.788, 234.198 407.517 C 233.482 407.245, 233.171 407.468, 233.507 408.011 C 234.377 409.420, 232.654 409.236, 231.053 407.750 C 229.976 406.750, 229.848 406.750, 230.412 407.750 C 231.046 408.872, 229.904 409.459, 227.750 409.118 C 227.338 409.053, 227 409.439, 227 409.975 C 227 410.511, 225.537 410.742, 223.750 410.489 C 221.043 410.104, 220.918 410.161, 223 410.829 L 225.500 411.631 222.941 412.140 C 221.534 412.420, 207.246 412.762, 191.191 412.900 L 162 413.151 162 411.075 C 162 409.934, 161.612 409, 161.139 409 C 160.665 409, 160.492 410.125, 160.755 411.500 L 161.233 414 190.067 414 C 217.409 414, 229 413.092, 229 410.949 C 229 410.461, 229.573 410.283, 230.273 410.551 C 232.321 411.337, 240.656 405.458, 243.959 400.898 C 246.941 396.782, 247.898 394.327, 246.085 395.447 C 245.582 395.758, 244.912 395.447, 244.595 394.756 C 244.278 394.065, 244.229 394.400, 244.486 395.500 M 220.375 398.887 C 220.804 402.568, 221.434 403.468, 222.933 402.541 C 224.579 401.524, 224.203 399.494, 222.002 397.502 L 220.003 395.693 220.375 398.887 M 218.292 407.786 C 219.277 408.209, 210.952 408.381, 199.792 408.169 C 188.631 407.956, 179.725 408.010, 180 408.289 C 181.007 409.310, 219.496 409.514, 219.803 408.500 C 219.969 407.950, 219.294 407.391, 218.303 407.258 L 216.500 407.017 218.292 407.786 M 172.500 410.680 C 186.782 411.380, 213.720 411.437, 212.659 410.765 C 212.022 410.361, 201.375 410.110, 189 410.208 C 176.625 410.306, 169.200 410.518, 172.500 410.680" stroke="none" fill="#0f233a" fill-rule="evenodd"/></svg>